G04 #@! TF.GenerationSoftware,KiCad,Pcbnew,(5.1.5-0-10_14)*
G04 #@! TF.CreationDate,2021-05-20T16:22:00+02:00*
G04 #@! TF.ProjectId,GottaGoFastZ2,476f7474-6147-46f4-9661-73745a322e6b,rev?*
G04 #@! TF.SameCoordinates,Original*
G04 #@! TF.FileFunction,Soldermask,Bot*
G04 #@! TF.FilePolarity,Negative*
%FSLAX46Y46*%
G04 Gerber Fmt 4.6, Leading zero omitted, Abs format (unit mm)*
G04 Created by KiCad (PCBNEW (5.1.5-0-10_14)) date 2021-05-20 16:22:00*
%MOMM*%
%LPD*%
G04 APERTURE LIST*
%ADD10C,0.100000*%
%ADD11O,1.700000X1.700000*%
%ADD12R,1.700000X1.700000*%
%ADD13R,1.524000X7.500000*%
%ADD14C,1.600000*%
%ADD15R,1.600000X1.600000*%
G04 APERTURE END LIST*
D10*
G36*
X213106000Y-120396000D02*
G01*
X81026000Y-120396000D01*
X81026000Y-111506000D01*
X213106000Y-111506000D01*
X213106000Y-120396000D01*
G37*
X213106000Y-120396000D02*
X81026000Y-120396000D01*
X81026000Y-111506000D01*
X213106000Y-111506000D01*
X213106000Y-120396000D01*
G36*
X181696504Y-107353204D02*
G01*
X181720773Y-107356804D01*
X181744571Y-107362765D01*
X181767671Y-107371030D01*
X181789849Y-107381520D01*
X181810893Y-107394133D01*
X181830598Y-107408747D01*
X181848777Y-107425223D01*
X181865253Y-107443402D01*
X181879867Y-107463107D01*
X181892480Y-107484151D01*
X181902970Y-107506329D01*
X181911235Y-107529429D01*
X181917196Y-107553227D01*
X181920796Y-107577496D01*
X181922000Y-107602000D01*
X181922000Y-108552000D01*
X181920796Y-108576504D01*
X181917196Y-108600773D01*
X181911235Y-108624571D01*
X181902970Y-108647671D01*
X181892480Y-108669849D01*
X181879867Y-108690893D01*
X181865253Y-108710598D01*
X181848777Y-108728777D01*
X181830598Y-108745253D01*
X181810893Y-108759867D01*
X181789849Y-108772480D01*
X181767671Y-108782970D01*
X181744571Y-108791235D01*
X181720773Y-108797196D01*
X181696504Y-108800796D01*
X181672000Y-108802000D01*
X180997000Y-108802000D01*
X180972496Y-108800796D01*
X180948227Y-108797196D01*
X180924429Y-108791235D01*
X180901329Y-108782970D01*
X180879151Y-108772480D01*
X180858107Y-108759867D01*
X180838402Y-108745253D01*
X180820223Y-108728777D01*
X180803747Y-108710598D01*
X180789133Y-108690893D01*
X180776520Y-108669849D01*
X180766030Y-108647671D01*
X180757765Y-108624571D01*
X180751804Y-108600773D01*
X180748204Y-108576504D01*
X180747000Y-108552000D01*
X180747000Y-107602000D01*
X180748204Y-107577496D01*
X180751804Y-107553227D01*
X180757765Y-107529429D01*
X180766030Y-107506329D01*
X180776520Y-107484151D01*
X180789133Y-107463107D01*
X180803747Y-107443402D01*
X180820223Y-107425223D01*
X180838402Y-107408747D01*
X180858107Y-107394133D01*
X180879151Y-107381520D01*
X180901329Y-107371030D01*
X180924429Y-107362765D01*
X180948227Y-107356804D01*
X180972496Y-107353204D01*
X180997000Y-107352000D01*
X181672000Y-107352000D01*
X181696504Y-107353204D01*
G37*
G36*
X183771504Y-107353204D02*
G01*
X183795773Y-107356804D01*
X183819571Y-107362765D01*
X183842671Y-107371030D01*
X183864849Y-107381520D01*
X183885893Y-107394133D01*
X183905598Y-107408747D01*
X183923777Y-107425223D01*
X183940253Y-107443402D01*
X183954867Y-107463107D01*
X183967480Y-107484151D01*
X183977970Y-107506329D01*
X183986235Y-107529429D01*
X183992196Y-107553227D01*
X183995796Y-107577496D01*
X183997000Y-107602000D01*
X183997000Y-108552000D01*
X183995796Y-108576504D01*
X183992196Y-108600773D01*
X183986235Y-108624571D01*
X183977970Y-108647671D01*
X183967480Y-108669849D01*
X183954867Y-108690893D01*
X183940253Y-108710598D01*
X183923777Y-108728777D01*
X183905598Y-108745253D01*
X183885893Y-108759867D01*
X183864849Y-108772480D01*
X183842671Y-108782970D01*
X183819571Y-108791235D01*
X183795773Y-108797196D01*
X183771504Y-108800796D01*
X183747000Y-108802000D01*
X183072000Y-108802000D01*
X183047496Y-108800796D01*
X183023227Y-108797196D01*
X182999429Y-108791235D01*
X182976329Y-108782970D01*
X182954151Y-108772480D01*
X182933107Y-108759867D01*
X182913402Y-108745253D01*
X182895223Y-108728777D01*
X182878747Y-108710598D01*
X182864133Y-108690893D01*
X182851520Y-108669849D01*
X182841030Y-108647671D01*
X182832765Y-108624571D01*
X182826804Y-108600773D01*
X182823204Y-108576504D01*
X182822000Y-108552000D01*
X182822000Y-107602000D01*
X182823204Y-107577496D01*
X182826804Y-107553227D01*
X182832765Y-107529429D01*
X182841030Y-107506329D01*
X182851520Y-107484151D01*
X182864133Y-107463107D01*
X182878747Y-107443402D01*
X182895223Y-107425223D01*
X182913402Y-107408747D01*
X182933107Y-107394133D01*
X182954151Y-107381520D01*
X182976329Y-107371030D01*
X182999429Y-107362765D01*
X183023227Y-107356804D01*
X183047496Y-107353204D01*
X183072000Y-107352000D01*
X183747000Y-107352000D01*
X183771504Y-107353204D01*
G37*
G36*
X183116585Y-87078524D02*
G01*
X183140853Y-87082124D01*
X183164652Y-87088085D01*
X183187751Y-87096350D01*
X183209930Y-87106840D01*
X183230973Y-87119452D01*
X183250679Y-87134067D01*
X183268857Y-87150543D01*
X183285333Y-87168721D01*
X183299948Y-87188427D01*
X183312560Y-87209470D01*
X183323050Y-87231649D01*
X183331315Y-87254748D01*
X183337276Y-87278547D01*
X183340876Y-87302815D01*
X183342080Y-87327319D01*
X183342080Y-88227321D01*
X183340876Y-88251825D01*
X183337276Y-88276093D01*
X183331315Y-88299892D01*
X183323050Y-88322991D01*
X183312560Y-88345170D01*
X183299948Y-88366213D01*
X183285333Y-88385919D01*
X183268857Y-88404097D01*
X183250679Y-88420573D01*
X183230973Y-88435188D01*
X183209930Y-88447800D01*
X183187751Y-88458290D01*
X183164652Y-88466555D01*
X183140853Y-88472516D01*
X183116585Y-88476116D01*
X183092081Y-88477320D01*
X182392079Y-88477320D01*
X182367575Y-88476116D01*
X182343307Y-88472516D01*
X182319508Y-88466555D01*
X182296409Y-88458290D01*
X182274230Y-88447800D01*
X182253187Y-88435188D01*
X182233481Y-88420573D01*
X182215303Y-88404097D01*
X182198827Y-88385919D01*
X182184212Y-88366213D01*
X182171600Y-88345170D01*
X182161110Y-88322991D01*
X182152845Y-88299892D01*
X182146884Y-88276093D01*
X182143284Y-88251825D01*
X182142080Y-88227321D01*
X182142080Y-87327319D01*
X182143284Y-87302815D01*
X182146884Y-87278547D01*
X182152845Y-87254748D01*
X182161110Y-87231649D01*
X182171600Y-87209470D01*
X182184212Y-87188427D01*
X182198827Y-87168721D01*
X182215303Y-87150543D01*
X182233481Y-87134067D01*
X182253187Y-87119452D01*
X182274230Y-87106840D01*
X182296409Y-87096350D01*
X182319508Y-87088085D01*
X182343307Y-87082124D01*
X182367575Y-87078524D01*
X182392079Y-87077320D01*
X183092081Y-87077320D01*
X183116585Y-87078524D01*
G37*
G36*
X181116585Y-87078524D02*
G01*
X181140853Y-87082124D01*
X181164652Y-87088085D01*
X181187751Y-87096350D01*
X181209930Y-87106840D01*
X181230973Y-87119452D01*
X181250679Y-87134067D01*
X181268857Y-87150543D01*
X181285333Y-87168721D01*
X181299948Y-87188427D01*
X181312560Y-87209470D01*
X181323050Y-87231649D01*
X181331315Y-87254748D01*
X181337276Y-87278547D01*
X181340876Y-87302815D01*
X181342080Y-87327319D01*
X181342080Y-88227321D01*
X181340876Y-88251825D01*
X181337276Y-88276093D01*
X181331315Y-88299892D01*
X181323050Y-88322991D01*
X181312560Y-88345170D01*
X181299948Y-88366213D01*
X181285333Y-88385919D01*
X181268857Y-88404097D01*
X181250679Y-88420573D01*
X181230973Y-88435188D01*
X181209930Y-88447800D01*
X181187751Y-88458290D01*
X181164652Y-88466555D01*
X181140853Y-88472516D01*
X181116585Y-88476116D01*
X181092081Y-88477320D01*
X180392079Y-88477320D01*
X180367575Y-88476116D01*
X180343307Y-88472516D01*
X180319508Y-88466555D01*
X180296409Y-88458290D01*
X180274230Y-88447800D01*
X180253187Y-88435188D01*
X180233481Y-88420573D01*
X180215303Y-88404097D01*
X180198827Y-88385919D01*
X180184212Y-88366213D01*
X180171600Y-88345170D01*
X180161110Y-88322991D01*
X180152845Y-88299892D01*
X180146884Y-88276093D01*
X180143284Y-88251825D01*
X180142080Y-88227321D01*
X180142080Y-87327319D01*
X180143284Y-87302815D01*
X180146884Y-87278547D01*
X180152845Y-87254748D01*
X180161110Y-87231649D01*
X180171600Y-87209470D01*
X180184212Y-87188427D01*
X180198827Y-87168721D01*
X180215303Y-87150543D01*
X180233481Y-87134067D01*
X180253187Y-87119452D01*
X180274230Y-87106840D01*
X180296409Y-87096350D01*
X180319508Y-87088085D01*
X180343307Y-87082124D01*
X180367575Y-87078524D01*
X180392079Y-87077320D01*
X181092081Y-87077320D01*
X181116585Y-87078524D01*
G37*
D11*
X194360800Y-81280000D03*
D12*
X191820800Y-81280000D03*
D13*
X84836000Y-115316000D03*
X87376000Y-115316000D03*
X89916000Y-115316000D03*
X92456000Y-115316000D03*
X94996000Y-115316000D03*
X97536000Y-115316000D03*
X100076000Y-115316000D03*
X102616000Y-115316000D03*
X105156000Y-115316000D03*
X107696000Y-115316000D03*
X110236000Y-115316000D03*
X112776000Y-115316000D03*
X115316000Y-115316000D03*
X117856000Y-115316000D03*
X120396000Y-115316000D03*
X122936000Y-115316000D03*
X125476000Y-115316000D03*
X128016000Y-115316000D03*
X130556000Y-115316000D03*
X133096000Y-115316000D03*
X135636000Y-115316000D03*
X138176000Y-115316000D03*
X140716000Y-115316000D03*
X143256000Y-115316000D03*
X145796000Y-115316000D03*
X148336000Y-115316000D03*
X150876000Y-115316000D03*
X153416000Y-115316000D03*
X155956000Y-115316000D03*
X158496000Y-115316000D03*
X161036000Y-115316000D03*
X163576000Y-115316000D03*
X166116000Y-115316000D03*
X168656000Y-115316000D03*
X171196000Y-115316000D03*
X173736000Y-115316000D03*
X176276000Y-115316000D03*
X178816000Y-115316000D03*
X181356000Y-115316000D03*
X183896000Y-115316000D03*
X186436000Y-115316000D03*
X188976000Y-115316000D03*
X191516000Y-115316000D03*
X194056000Y-115316000D03*
X196596000Y-115316000D03*
X199136000Y-115316000D03*
X201676000Y-115316000D03*
X204216000Y-115316000D03*
X206756000Y-115316000D03*
X209296000Y-115316000D03*
D11*
X199440800Y-89484200D03*
X196900800Y-89484200D03*
X194360800Y-89484200D03*
X191820800Y-89484200D03*
X189280800Y-89484200D03*
D12*
X186740800Y-89484200D03*
D10*
G36*
X164886784Y-90614604D02*
G01*
X164911053Y-90618204D01*
X164934851Y-90624165D01*
X164957951Y-90632430D01*
X164980129Y-90642920D01*
X165001173Y-90655533D01*
X165020878Y-90670147D01*
X165039057Y-90686623D01*
X165055533Y-90704802D01*
X165070147Y-90724507D01*
X165082760Y-90745551D01*
X165093250Y-90767729D01*
X165101515Y-90790829D01*
X165107476Y-90814627D01*
X165111076Y-90838896D01*
X165112280Y-90863400D01*
X165112280Y-91813400D01*
X165111076Y-91837904D01*
X165107476Y-91862173D01*
X165101515Y-91885971D01*
X165093250Y-91909071D01*
X165082760Y-91931249D01*
X165070147Y-91952293D01*
X165055533Y-91971998D01*
X165039057Y-91990177D01*
X165020878Y-92006653D01*
X165001173Y-92021267D01*
X164980129Y-92033880D01*
X164957951Y-92044370D01*
X164934851Y-92052635D01*
X164911053Y-92058596D01*
X164886784Y-92062196D01*
X164862280Y-92063400D01*
X164187280Y-92063400D01*
X164162776Y-92062196D01*
X164138507Y-92058596D01*
X164114709Y-92052635D01*
X164091609Y-92044370D01*
X164069431Y-92033880D01*
X164048387Y-92021267D01*
X164028682Y-92006653D01*
X164010503Y-91990177D01*
X163994027Y-91971998D01*
X163979413Y-91952293D01*
X163966800Y-91931249D01*
X163956310Y-91909071D01*
X163948045Y-91885971D01*
X163942084Y-91862173D01*
X163938484Y-91837904D01*
X163937280Y-91813400D01*
X163937280Y-90863400D01*
X163938484Y-90838896D01*
X163942084Y-90814627D01*
X163948045Y-90790829D01*
X163956310Y-90767729D01*
X163966800Y-90745551D01*
X163979413Y-90724507D01*
X163994027Y-90704802D01*
X164010503Y-90686623D01*
X164028682Y-90670147D01*
X164048387Y-90655533D01*
X164069431Y-90642920D01*
X164091609Y-90632430D01*
X164114709Y-90624165D01*
X164138507Y-90618204D01*
X164162776Y-90614604D01*
X164187280Y-90613400D01*
X164862280Y-90613400D01*
X164886784Y-90614604D01*
G37*
G36*
X166961784Y-90614604D02*
G01*
X166986053Y-90618204D01*
X167009851Y-90624165D01*
X167032951Y-90632430D01*
X167055129Y-90642920D01*
X167076173Y-90655533D01*
X167095878Y-90670147D01*
X167114057Y-90686623D01*
X167130533Y-90704802D01*
X167145147Y-90724507D01*
X167157760Y-90745551D01*
X167168250Y-90767729D01*
X167176515Y-90790829D01*
X167182476Y-90814627D01*
X167186076Y-90838896D01*
X167187280Y-90863400D01*
X167187280Y-91813400D01*
X167186076Y-91837904D01*
X167182476Y-91862173D01*
X167176515Y-91885971D01*
X167168250Y-91909071D01*
X167157760Y-91931249D01*
X167145147Y-91952293D01*
X167130533Y-91971998D01*
X167114057Y-91990177D01*
X167095878Y-92006653D01*
X167076173Y-92021267D01*
X167055129Y-92033880D01*
X167032951Y-92044370D01*
X167009851Y-92052635D01*
X166986053Y-92058596D01*
X166961784Y-92062196D01*
X166937280Y-92063400D01*
X166262280Y-92063400D01*
X166237776Y-92062196D01*
X166213507Y-92058596D01*
X166189709Y-92052635D01*
X166166609Y-92044370D01*
X166144431Y-92033880D01*
X166123387Y-92021267D01*
X166103682Y-92006653D01*
X166085503Y-91990177D01*
X166069027Y-91971998D01*
X166054413Y-91952293D01*
X166041800Y-91931249D01*
X166031310Y-91909071D01*
X166023045Y-91885971D01*
X166017084Y-91862173D01*
X166013484Y-91837904D01*
X166012280Y-91813400D01*
X166012280Y-90863400D01*
X166013484Y-90838896D01*
X166017084Y-90814627D01*
X166023045Y-90790829D01*
X166031310Y-90767729D01*
X166041800Y-90745551D01*
X166054413Y-90724507D01*
X166069027Y-90704802D01*
X166085503Y-90686623D01*
X166103682Y-90670147D01*
X166123387Y-90655533D01*
X166144431Y-90642920D01*
X166166609Y-90632430D01*
X166189709Y-90624165D01*
X166213507Y-90618204D01*
X166237776Y-90614604D01*
X166262280Y-90613400D01*
X166937280Y-90613400D01*
X166961784Y-90614604D01*
G37*
G36*
X161546504Y-82080204D02*
G01*
X161570773Y-82083804D01*
X161594571Y-82089765D01*
X161617671Y-82098030D01*
X161639849Y-82108520D01*
X161660893Y-82121133D01*
X161680598Y-82135747D01*
X161698777Y-82152223D01*
X161715253Y-82170402D01*
X161729867Y-82190107D01*
X161742480Y-82211151D01*
X161752970Y-82233329D01*
X161761235Y-82256429D01*
X161767196Y-82280227D01*
X161770796Y-82304496D01*
X161772000Y-82329000D01*
X161772000Y-83279000D01*
X161770796Y-83303504D01*
X161767196Y-83327773D01*
X161761235Y-83351571D01*
X161752970Y-83374671D01*
X161742480Y-83396849D01*
X161729867Y-83417893D01*
X161715253Y-83437598D01*
X161698777Y-83455777D01*
X161680598Y-83472253D01*
X161660893Y-83486867D01*
X161639849Y-83499480D01*
X161617671Y-83509970D01*
X161594571Y-83518235D01*
X161570773Y-83524196D01*
X161546504Y-83527796D01*
X161522000Y-83529000D01*
X160847000Y-83529000D01*
X160822496Y-83527796D01*
X160798227Y-83524196D01*
X160774429Y-83518235D01*
X160751329Y-83509970D01*
X160729151Y-83499480D01*
X160708107Y-83486867D01*
X160688402Y-83472253D01*
X160670223Y-83455777D01*
X160653747Y-83437598D01*
X160639133Y-83417893D01*
X160626520Y-83396849D01*
X160616030Y-83374671D01*
X160607765Y-83351571D01*
X160601804Y-83327773D01*
X160598204Y-83303504D01*
X160597000Y-83279000D01*
X160597000Y-82329000D01*
X160598204Y-82304496D01*
X160601804Y-82280227D01*
X160607765Y-82256429D01*
X160616030Y-82233329D01*
X160626520Y-82211151D01*
X160639133Y-82190107D01*
X160653747Y-82170402D01*
X160670223Y-82152223D01*
X160688402Y-82135747D01*
X160708107Y-82121133D01*
X160729151Y-82108520D01*
X160751329Y-82098030D01*
X160774429Y-82089765D01*
X160798227Y-82083804D01*
X160822496Y-82080204D01*
X160847000Y-82079000D01*
X161522000Y-82079000D01*
X161546504Y-82080204D01*
G37*
G36*
X159471504Y-82080204D02*
G01*
X159495773Y-82083804D01*
X159519571Y-82089765D01*
X159542671Y-82098030D01*
X159564849Y-82108520D01*
X159585893Y-82121133D01*
X159605598Y-82135747D01*
X159623777Y-82152223D01*
X159640253Y-82170402D01*
X159654867Y-82190107D01*
X159667480Y-82211151D01*
X159677970Y-82233329D01*
X159686235Y-82256429D01*
X159692196Y-82280227D01*
X159695796Y-82304496D01*
X159697000Y-82329000D01*
X159697000Y-83279000D01*
X159695796Y-83303504D01*
X159692196Y-83327773D01*
X159686235Y-83351571D01*
X159677970Y-83374671D01*
X159667480Y-83396849D01*
X159654867Y-83417893D01*
X159640253Y-83437598D01*
X159623777Y-83455777D01*
X159605598Y-83472253D01*
X159585893Y-83486867D01*
X159564849Y-83499480D01*
X159542671Y-83509970D01*
X159519571Y-83518235D01*
X159495773Y-83524196D01*
X159471504Y-83527796D01*
X159447000Y-83529000D01*
X158772000Y-83529000D01*
X158747496Y-83527796D01*
X158723227Y-83524196D01*
X158699429Y-83518235D01*
X158676329Y-83509970D01*
X158654151Y-83499480D01*
X158633107Y-83486867D01*
X158613402Y-83472253D01*
X158595223Y-83455777D01*
X158578747Y-83437598D01*
X158564133Y-83417893D01*
X158551520Y-83396849D01*
X158541030Y-83374671D01*
X158532765Y-83351571D01*
X158526804Y-83327773D01*
X158523204Y-83303504D01*
X158522000Y-83279000D01*
X158522000Y-82329000D01*
X158523204Y-82304496D01*
X158526804Y-82280227D01*
X158532765Y-82256429D01*
X158541030Y-82233329D01*
X158551520Y-82211151D01*
X158564133Y-82190107D01*
X158578747Y-82170402D01*
X158595223Y-82152223D01*
X158613402Y-82135747D01*
X158633107Y-82121133D01*
X158654151Y-82108520D01*
X158676329Y-82098030D01*
X158699429Y-82089765D01*
X158723227Y-82083804D01*
X158747496Y-82080204D01*
X158772000Y-82079000D01*
X159447000Y-82079000D01*
X159471504Y-82080204D01*
G37*
G36*
X161546504Y-63030204D02*
G01*
X161570773Y-63033804D01*
X161594571Y-63039765D01*
X161617671Y-63048030D01*
X161639849Y-63058520D01*
X161660893Y-63071133D01*
X161680598Y-63085747D01*
X161698777Y-63102223D01*
X161715253Y-63120402D01*
X161729867Y-63140107D01*
X161742480Y-63161151D01*
X161752970Y-63183329D01*
X161761235Y-63206429D01*
X161767196Y-63230227D01*
X161770796Y-63254496D01*
X161772000Y-63279000D01*
X161772000Y-64229000D01*
X161770796Y-64253504D01*
X161767196Y-64277773D01*
X161761235Y-64301571D01*
X161752970Y-64324671D01*
X161742480Y-64346849D01*
X161729867Y-64367893D01*
X161715253Y-64387598D01*
X161698777Y-64405777D01*
X161680598Y-64422253D01*
X161660893Y-64436867D01*
X161639849Y-64449480D01*
X161617671Y-64459970D01*
X161594571Y-64468235D01*
X161570773Y-64474196D01*
X161546504Y-64477796D01*
X161522000Y-64479000D01*
X160847000Y-64479000D01*
X160822496Y-64477796D01*
X160798227Y-64474196D01*
X160774429Y-64468235D01*
X160751329Y-64459970D01*
X160729151Y-64449480D01*
X160708107Y-64436867D01*
X160688402Y-64422253D01*
X160670223Y-64405777D01*
X160653747Y-64387598D01*
X160639133Y-64367893D01*
X160626520Y-64346849D01*
X160616030Y-64324671D01*
X160607765Y-64301571D01*
X160601804Y-64277773D01*
X160598204Y-64253504D01*
X160597000Y-64229000D01*
X160597000Y-63279000D01*
X160598204Y-63254496D01*
X160601804Y-63230227D01*
X160607765Y-63206429D01*
X160616030Y-63183329D01*
X160626520Y-63161151D01*
X160639133Y-63140107D01*
X160653747Y-63120402D01*
X160670223Y-63102223D01*
X160688402Y-63085747D01*
X160708107Y-63071133D01*
X160729151Y-63058520D01*
X160751329Y-63048030D01*
X160774429Y-63039765D01*
X160798227Y-63033804D01*
X160822496Y-63030204D01*
X160847000Y-63029000D01*
X161522000Y-63029000D01*
X161546504Y-63030204D01*
G37*
G36*
X159471504Y-63030204D02*
G01*
X159495773Y-63033804D01*
X159519571Y-63039765D01*
X159542671Y-63048030D01*
X159564849Y-63058520D01*
X159585893Y-63071133D01*
X159605598Y-63085747D01*
X159623777Y-63102223D01*
X159640253Y-63120402D01*
X159654867Y-63140107D01*
X159667480Y-63161151D01*
X159677970Y-63183329D01*
X159686235Y-63206429D01*
X159692196Y-63230227D01*
X159695796Y-63254496D01*
X159697000Y-63279000D01*
X159697000Y-64229000D01*
X159695796Y-64253504D01*
X159692196Y-64277773D01*
X159686235Y-64301571D01*
X159677970Y-64324671D01*
X159667480Y-64346849D01*
X159654867Y-64367893D01*
X159640253Y-64387598D01*
X159623777Y-64405777D01*
X159605598Y-64422253D01*
X159585893Y-64436867D01*
X159564849Y-64449480D01*
X159542671Y-64459970D01*
X159519571Y-64468235D01*
X159495773Y-64474196D01*
X159471504Y-64477796D01*
X159447000Y-64479000D01*
X158772000Y-64479000D01*
X158747496Y-64477796D01*
X158723227Y-64474196D01*
X158699429Y-64468235D01*
X158676329Y-64459970D01*
X158654151Y-64449480D01*
X158633107Y-64436867D01*
X158613402Y-64422253D01*
X158595223Y-64405777D01*
X158578747Y-64387598D01*
X158564133Y-64367893D01*
X158551520Y-64346849D01*
X158541030Y-64324671D01*
X158532765Y-64301571D01*
X158526804Y-64277773D01*
X158523204Y-64253504D01*
X158522000Y-64229000D01*
X158522000Y-63279000D01*
X158523204Y-63254496D01*
X158526804Y-63230227D01*
X158532765Y-63206429D01*
X158541030Y-63183329D01*
X158551520Y-63161151D01*
X158564133Y-63140107D01*
X158578747Y-63120402D01*
X158595223Y-63102223D01*
X158613402Y-63085747D01*
X158633107Y-63071133D01*
X158654151Y-63058520D01*
X158676329Y-63048030D01*
X158699429Y-63039765D01*
X158723227Y-63033804D01*
X158747496Y-63030204D01*
X158772000Y-63029000D01*
X159447000Y-63029000D01*
X159471504Y-63030204D01*
G37*
G36*
X168998024Y-105241444D02*
G01*
X169022293Y-105245044D01*
X169046091Y-105251005D01*
X169069191Y-105259270D01*
X169091369Y-105269760D01*
X169112413Y-105282373D01*
X169132118Y-105296987D01*
X169150297Y-105313463D01*
X169166773Y-105331642D01*
X169181387Y-105351347D01*
X169194000Y-105372391D01*
X169204490Y-105394569D01*
X169212755Y-105417669D01*
X169218716Y-105441467D01*
X169222316Y-105465736D01*
X169223520Y-105490240D01*
X169223520Y-106165240D01*
X169222316Y-106189744D01*
X169218716Y-106214013D01*
X169212755Y-106237811D01*
X169204490Y-106260911D01*
X169194000Y-106283089D01*
X169181387Y-106304133D01*
X169166773Y-106323838D01*
X169150297Y-106342017D01*
X169132118Y-106358493D01*
X169112413Y-106373107D01*
X169091369Y-106385720D01*
X169069191Y-106396210D01*
X169046091Y-106404475D01*
X169022293Y-106410436D01*
X168998024Y-106414036D01*
X168973520Y-106415240D01*
X168023520Y-106415240D01*
X167999016Y-106414036D01*
X167974747Y-106410436D01*
X167950949Y-106404475D01*
X167927849Y-106396210D01*
X167905671Y-106385720D01*
X167884627Y-106373107D01*
X167864922Y-106358493D01*
X167846743Y-106342017D01*
X167830267Y-106323838D01*
X167815653Y-106304133D01*
X167803040Y-106283089D01*
X167792550Y-106260911D01*
X167784285Y-106237811D01*
X167778324Y-106214013D01*
X167774724Y-106189744D01*
X167773520Y-106165240D01*
X167773520Y-105490240D01*
X167774724Y-105465736D01*
X167778324Y-105441467D01*
X167784285Y-105417669D01*
X167792550Y-105394569D01*
X167803040Y-105372391D01*
X167815653Y-105351347D01*
X167830267Y-105331642D01*
X167846743Y-105313463D01*
X167864922Y-105296987D01*
X167884627Y-105282373D01*
X167905671Y-105269760D01*
X167927849Y-105259270D01*
X167950949Y-105251005D01*
X167974747Y-105245044D01*
X167999016Y-105241444D01*
X168023520Y-105240240D01*
X168973520Y-105240240D01*
X168998024Y-105241444D01*
G37*
G36*
X168998024Y-103166444D02*
G01*
X169022293Y-103170044D01*
X169046091Y-103176005D01*
X169069191Y-103184270D01*
X169091369Y-103194760D01*
X169112413Y-103207373D01*
X169132118Y-103221987D01*
X169150297Y-103238463D01*
X169166773Y-103256642D01*
X169181387Y-103276347D01*
X169194000Y-103297391D01*
X169204490Y-103319569D01*
X169212755Y-103342669D01*
X169218716Y-103366467D01*
X169222316Y-103390736D01*
X169223520Y-103415240D01*
X169223520Y-104090240D01*
X169222316Y-104114744D01*
X169218716Y-104139013D01*
X169212755Y-104162811D01*
X169204490Y-104185911D01*
X169194000Y-104208089D01*
X169181387Y-104229133D01*
X169166773Y-104248838D01*
X169150297Y-104267017D01*
X169132118Y-104283493D01*
X169112413Y-104298107D01*
X169091369Y-104310720D01*
X169069191Y-104321210D01*
X169046091Y-104329475D01*
X169022293Y-104335436D01*
X168998024Y-104339036D01*
X168973520Y-104340240D01*
X168023520Y-104340240D01*
X167999016Y-104339036D01*
X167974747Y-104335436D01*
X167950949Y-104329475D01*
X167927849Y-104321210D01*
X167905671Y-104310720D01*
X167884627Y-104298107D01*
X167864922Y-104283493D01*
X167846743Y-104267017D01*
X167830267Y-104248838D01*
X167815653Y-104229133D01*
X167803040Y-104208089D01*
X167792550Y-104185911D01*
X167784285Y-104162811D01*
X167778324Y-104139013D01*
X167774724Y-104114744D01*
X167773520Y-104090240D01*
X167773520Y-103415240D01*
X167774724Y-103390736D01*
X167778324Y-103366467D01*
X167784285Y-103342669D01*
X167792550Y-103319569D01*
X167803040Y-103297391D01*
X167815653Y-103276347D01*
X167830267Y-103256642D01*
X167846743Y-103238463D01*
X167864922Y-103221987D01*
X167884627Y-103207373D01*
X167905671Y-103194760D01*
X167927849Y-103184270D01*
X167950949Y-103176005D01*
X167974747Y-103170044D01*
X167999016Y-103166444D01*
X168023520Y-103165240D01*
X168973520Y-103165240D01*
X168998024Y-103166444D01*
G37*
G36*
X161546504Y-56680204D02*
G01*
X161570773Y-56683804D01*
X161594571Y-56689765D01*
X161617671Y-56698030D01*
X161639849Y-56708520D01*
X161660893Y-56721133D01*
X161680598Y-56735747D01*
X161698777Y-56752223D01*
X161715253Y-56770402D01*
X161729867Y-56790107D01*
X161742480Y-56811151D01*
X161752970Y-56833329D01*
X161761235Y-56856429D01*
X161767196Y-56880227D01*
X161770796Y-56904496D01*
X161772000Y-56929000D01*
X161772000Y-57879000D01*
X161770796Y-57903504D01*
X161767196Y-57927773D01*
X161761235Y-57951571D01*
X161752970Y-57974671D01*
X161742480Y-57996849D01*
X161729867Y-58017893D01*
X161715253Y-58037598D01*
X161698777Y-58055777D01*
X161680598Y-58072253D01*
X161660893Y-58086867D01*
X161639849Y-58099480D01*
X161617671Y-58109970D01*
X161594571Y-58118235D01*
X161570773Y-58124196D01*
X161546504Y-58127796D01*
X161522000Y-58129000D01*
X160847000Y-58129000D01*
X160822496Y-58127796D01*
X160798227Y-58124196D01*
X160774429Y-58118235D01*
X160751329Y-58109970D01*
X160729151Y-58099480D01*
X160708107Y-58086867D01*
X160688402Y-58072253D01*
X160670223Y-58055777D01*
X160653747Y-58037598D01*
X160639133Y-58017893D01*
X160626520Y-57996849D01*
X160616030Y-57974671D01*
X160607765Y-57951571D01*
X160601804Y-57927773D01*
X160598204Y-57903504D01*
X160597000Y-57879000D01*
X160597000Y-56929000D01*
X160598204Y-56904496D01*
X160601804Y-56880227D01*
X160607765Y-56856429D01*
X160616030Y-56833329D01*
X160626520Y-56811151D01*
X160639133Y-56790107D01*
X160653747Y-56770402D01*
X160670223Y-56752223D01*
X160688402Y-56735747D01*
X160708107Y-56721133D01*
X160729151Y-56708520D01*
X160751329Y-56698030D01*
X160774429Y-56689765D01*
X160798227Y-56683804D01*
X160822496Y-56680204D01*
X160847000Y-56679000D01*
X161522000Y-56679000D01*
X161546504Y-56680204D01*
G37*
G36*
X159471504Y-56680204D02*
G01*
X159495773Y-56683804D01*
X159519571Y-56689765D01*
X159542671Y-56698030D01*
X159564849Y-56708520D01*
X159585893Y-56721133D01*
X159605598Y-56735747D01*
X159623777Y-56752223D01*
X159640253Y-56770402D01*
X159654867Y-56790107D01*
X159667480Y-56811151D01*
X159677970Y-56833329D01*
X159686235Y-56856429D01*
X159692196Y-56880227D01*
X159695796Y-56904496D01*
X159697000Y-56929000D01*
X159697000Y-57879000D01*
X159695796Y-57903504D01*
X159692196Y-57927773D01*
X159686235Y-57951571D01*
X159677970Y-57974671D01*
X159667480Y-57996849D01*
X159654867Y-58017893D01*
X159640253Y-58037598D01*
X159623777Y-58055777D01*
X159605598Y-58072253D01*
X159585893Y-58086867D01*
X159564849Y-58099480D01*
X159542671Y-58109970D01*
X159519571Y-58118235D01*
X159495773Y-58124196D01*
X159471504Y-58127796D01*
X159447000Y-58129000D01*
X158772000Y-58129000D01*
X158747496Y-58127796D01*
X158723227Y-58124196D01*
X158699429Y-58118235D01*
X158676329Y-58109970D01*
X158654151Y-58099480D01*
X158633107Y-58086867D01*
X158613402Y-58072253D01*
X158595223Y-58055777D01*
X158578747Y-58037598D01*
X158564133Y-58017893D01*
X158551520Y-57996849D01*
X158541030Y-57974671D01*
X158532765Y-57951571D01*
X158526804Y-57927773D01*
X158523204Y-57903504D01*
X158522000Y-57879000D01*
X158522000Y-56929000D01*
X158523204Y-56904496D01*
X158526804Y-56880227D01*
X158532765Y-56856429D01*
X158541030Y-56833329D01*
X158551520Y-56811151D01*
X158564133Y-56790107D01*
X158578747Y-56770402D01*
X158595223Y-56752223D01*
X158613402Y-56735747D01*
X158633107Y-56721133D01*
X158654151Y-56708520D01*
X158676329Y-56698030D01*
X158699429Y-56689765D01*
X158723227Y-56683804D01*
X158747496Y-56680204D01*
X158772000Y-56679000D01*
X159447000Y-56679000D01*
X159471504Y-56680204D01*
G37*
G36*
X143766504Y-82080204D02*
G01*
X143790773Y-82083804D01*
X143814571Y-82089765D01*
X143837671Y-82098030D01*
X143859849Y-82108520D01*
X143880893Y-82121133D01*
X143900598Y-82135747D01*
X143918777Y-82152223D01*
X143935253Y-82170402D01*
X143949867Y-82190107D01*
X143962480Y-82211151D01*
X143972970Y-82233329D01*
X143981235Y-82256429D01*
X143987196Y-82280227D01*
X143990796Y-82304496D01*
X143992000Y-82329000D01*
X143992000Y-83279000D01*
X143990796Y-83303504D01*
X143987196Y-83327773D01*
X143981235Y-83351571D01*
X143972970Y-83374671D01*
X143962480Y-83396849D01*
X143949867Y-83417893D01*
X143935253Y-83437598D01*
X143918777Y-83455777D01*
X143900598Y-83472253D01*
X143880893Y-83486867D01*
X143859849Y-83499480D01*
X143837671Y-83509970D01*
X143814571Y-83518235D01*
X143790773Y-83524196D01*
X143766504Y-83527796D01*
X143742000Y-83529000D01*
X143067000Y-83529000D01*
X143042496Y-83527796D01*
X143018227Y-83524196D01*
X142994429Y-83518235D01*
X142971329Y-83509970D01*
X142949151Y-83499480D01*
X142928107Y-83486867D01*
X142908402Y-83472253D01*
X142890223Y-83455777D01*
X142873747Y-83437598D01*
X142859133Y-83417893D01*
X142846520Y-83396849D01*
X142836030Y-83374671D01*
X142827765Y-83351571D01*
X142821804Y-83327773D01*
X142818204Y-83303504D01*
X142817000Y-83279000D01*
X142817000Y-82329000D01*
X142818204Y-82304496D01*
X142821804Y-82280227D01*
X142827765Y-82256429D01*
X142836030Y-82233329D01*
X142846520Y-82211151D01*
X142859133Y-82190107D01*
X142873747Y-82170402D01*
X142890223Y-82152223D01*
X142908402Y-82135747D01*
X142928107Y-82121133D01*
X142949151Y-82108520D01*
X142971329Y-82098030D01*
X142994429Y-82089765D01*
X143018227Y-82083804D01*
X143042496Y-82080204D01*
X143067000Y-82079000D01*
X143742000Y-82079000D01*
X143766504Y-82080204D01*
G37*
G36*
X141691504Y-82080204D02*
G01*
X141715773Y-82083804D01*
X141739571Y-82089765D01*
X141762671Y-82098030D01*
X141784849Y-82108520D01*
X141805893Y-82121133D01*
X141825598Y-82135747D01*
X141843777Y-82152223D01*
X141860253Y-82170402D01*
X141874867Y-82190107D01*
X141887480Y-82211151D01*
X141897970Y-82233329D01*
X141906235Y-82256429D01*
X141912196Y-82280227D01*
X141915796Y-82304496D01*
X141917000Y-82329000D01*
X141917000Y-83279000D01*
X141915796Y-83303504D01*
X141912196Y-83327773D01*
X141906235Y-83351571D01*
X141897970Y-83374671D01*
X141887480Y-83396849D01*
X141874867Y-83417893D01*
X141860253Y-83437598D01*
X141843777Y-83455777D01*
X141825598Y-83472253D01*
X141805893Y-83486867D01*
X141784849Y-83499480D01*
X141762671Y-83509970D01*
X141739571Y-83518235D01*
X141715773Y-83524196D01*
X141691504Y-83527796D01*
X141667000Y-83529000D01*
X140992000Y-83529000D01*
X140967496Y-83527796D01*
X140943227Y-83524196D01*
X140919429Y-83518235D01*
X140896329Y-83509970D01*
X140874151Y-83499480D01*
X140853107Y-83486867D01*
X140833402Y-83472253D01*
X140815223Y-83455777D01*
X140798747Y-83437598D01*
X140784133Y-83417893D01*
X140771520Y-83396849D01*
X140761030Y-83374671D01*
X140752765Y-83351571D01*
X140746804Y-83327773D01*
X140743204Y-83303504D01*
X140742000Y-83279000D01*
X140742000Y-82329000D01*
X140743204Y-82304496D01*
X140746804Y-82280227D01*
X140752765Y-82256429D01*
X140761030Y-82233329D01*
X140771520Y-82211151D01*
X140784133Y-82190107D01*
X140798747Y-82170402D01*
X140815223Y-82152223D01*
X140833402Y-82135747D01*
X140853107Y-82121133D01*
X140874151Y-82108520D01*
X140896329Y-82098030D01*
X140919429Y-82089765D01*
X140943227Y-82083804D01*
X140967496Y-82080204D01*
X140992000Y-82079000D01*
X141667000Y-82079000D01*
X141691504Y-82080204D01*
G37*
G36*
X164932504Y-95415204D02*
G01*
X164956773Y-95418804D01*
X164980571Y-95424765D01*
X165003671Y-95433030D01*
X165025849Y-95443520D01*
X165046893Y-95456133D01*
X165066598Y-95470747D01*
X165084777Y-95487223D01*
X165101253Y-95505402D01*
X165115867Y-95525107D01*
X165128480Y-95546151D01*
X165138970Y-95568329D01*
X165147235Y-95591429D01*
X165153196Y-95615227D01*
X165156796Y-95639496D01*
X165158000Y-95664000D01*
X165158000Y-96614000D01*
X165156796Y-96638504D01*
X165153196Y-96662773D01*
X165147235Y-96686571D01*
X165138970Y-96709671D01*
X165128480Y-96731849D01*
X165115867Y-96752893D01*
X165101253Y-96772598D01*
X165084777Y-96790777D01*
X165066598Y-96807253D01*
X165046893Y-96821867D01*
X165025849Y-96834480D01*
X165003671Y-96844970D01*
X164980571Y-96853235D01*
X164956773Y-96859196D01*
X164932504Y-96862796D01*
X164908000Y-96864000D01*
X164233000Y-96864000D01*
X164208496Y-96862796D01*
X164184227Y-96859196D01*
X164160429Y-96853235D01*
X164137329Y-96844970D01*
X164115151Y-96834480D01*
X164094107Y-96821867D01*
X164074402Y-96807253D01*
X164056223Y-96790777D01*
X164039747Y-96772598D01*
X164025133Y-96752893D01*
X164012520Y-96731849D01*
X164002030Y-96709671D01*
X163993765Y-96686571D01*
X163987804Y-96662773D01*
X163984204Y-96638504D01*
X163983000Y-96614000D01*
X163983000Y-95664000D01*
X163984204Y-95639496D01*
X163987804Y-95615227D01*
X163993765Y-95591429D01*
X164002030Y-95568329D01*
X164012520Y-95546151D01*
X164025133Y-95525107D01*
X164039747Y-95505402D01*
X164056223Y-95487223D01*
X164074402Y-95470747D01*
X164094107Y-95456133D01*
X164115151Y-95443520D01*
X164137329Y-95433030D01*
X164160429Y-95424765D01*
X164184227Y-95418804D01*
X164208496Y-95415204D01*
X164233000Y-95414000D01*
X164908000Y-95414000D01*
X164932504Y-95415204D01*
G37*
G36*
X167007504Y-95415204D02*
G01*
X167031773Y-95418804D01*
X167055571Y-95424765D01*
X167078671Y-95433030D01*
X167100849Y-95443520D01*
X167121893Y-95456133D01*
X167141598Y-95470747D01*
X167159777Y-95487223D01*
X167176253Y-95505402D01*
X167190867Y-95525107D01*
X167203480Y-95546151D01*
X167213970Y-95568329D01*
X167222235Y-95591429D01*
X167228196Y-95615227D01*
X167231796Y-95639496D01*
X167233000Y-95664000D01*
X167233000Y-96614000D01*
X167231796Y-96638504D01*
X167228196Y-96662773D01*
X167222235Y-96686571D01*
X167213970Y-96709671D01*
X167203480Y-96731849D01*
X167190867Y-96752893D01*
X167176253Y-96772598D01*
X167159777Y-96790777D01*
X167141598Y-96807253D01*
X167121893Y-96821867D01*
X167100849Y-96834480D01*
X167078671Y-96844970D01*
X167055571Y-96853235D01*
X167031773Y-96859196D01*
X167007504Y-96862796D01*
X166983000Y-96864000D01*
X166308000Y-96864000D01*
X166283496Y-96862796D01*
X166259227Y-96859196D01*
X166235429Y-96853235D01*
X166212329Y-96844970D01*
X166190151Y-96834480D01*
X166169107Y-96821867D01*
X166149402Y-96807253D01*
X166131223Y-96790777D01*
X166114747Y-96772598D01*
X166100133Y-96752893D01*
X166087520Y-96731849D01*
X166077030Y-96709671D01*
X166068765Y-96686571D01*
X166062804Y-96662773D01*
X166059204Y-96638504D01*
X166058000Y-96614000D01*
X166058000Y-95664000D01*
X166059204Y-95639496D01*
X166062804Y-95615227D01*
X166068765Y-95591429D01*
X166077030Y-95568329D01*
X166087520Y-95546151D01*
X166100133Y-95525107D01*
X166114747Y-95505402D01*
X166131223Y-95487223D01*
X166149402Y-95470747D01*
X166169107Y-95456133D01*
X166190151Y-95443520D01*
X166212329Y-95433030D01*
X166235429Y-95424765D01*
X166259227Y-95418804D01*
X166283496Y-95415204D01*
X166308000Y-95414000D01*
X166983000Y-95414000D01*
X167007504Y-95415204D01*
G37*
G36*
X114545504Y-102770204D02*
G01*
X114569773Y-102773804D01*
X114593571Y-102779765D01*
X114616671Y-102788030D01*
X114638849Y-102798520D01*
X114659893Y-102811133D01*
X114679598Y-102825747D01*
X114697777Y-102842223D01*
X114714253Y-102860402D01*
X114728867Y-102880107D01*
X114741480Y-102901151D01*
X114751970Y-102923329D01*
X114760235Y-102946429D01*
X114766196Y-102970227D01*
X114769796Y-102994496D01*
X114771000Y-103019000D01*
X114771000Y-103694000D01*
X114769796Y-103718504D01*
X114766196Y-103742773D01*
X114760235Y-103766571D01*
X114751970Y-103789671D01*
X114741480Y-103811849D01*
X114728867Y-103832893D01*
X114714253Y-103852598D01*
X114697777Y-103870777D01*
X114679598Y-103887253D01*
X114659893Y-103901867D01*
X114638849Y-103914480D01*
X114616671Y-103924970D01*
X114593571Y-103933235D01*
X114569773Y-103939196D01*
X114545504Y-103942796D01*
X114521000Y-103944000D01*
X113571000Y-103944000D01*
X113546496Y-103942796D01*
X113522227Y-103939196D01*
X113498429Y-103933235D01*
X113475329Y-103924970D01*
X113453151Y-103914480D01*
X113432107Y-103901867D01*
X113412402Y-103887253D01*
X113394223Y-103870777D01*
X113377747Y-103852598D01*
X113363133Y-103832893D01*
X113350520Y-103811849D01*
X113340030Y-103789671D01*
X113331765Y-103766571D01*
X113325804Y-103742773D01*
X113322204Y-103718504D01*
X113321000Y-103694000D01*
X113321000Y-103019000D01*
X113322204Y-102994496D01*
X113325804Y-102970227D01*
X113331765Y-102946429D01*
X113340030Y-102923329D01*
X113350520Y-102901151D01*
X113363133Y-102880107D01*
X113377747Y-102860402D01*
X113394223Y-102842223D01*
X113412402Y-102825747D01*
X113432107Y-102811133D01*
X113453151Y-102798520D01*
X113475329Y-102788030D01*
X113498429Y-102779765D01*
X113522227Y-102773804D01*
X113546496Y-102770204D01*
X113571000Y-102769000D01*
X114521000Y-102769000D01*
X114545504Y-102770204D01*
G37*
G36*
X114545504Y-104845204D02*
G01*
X114569773Y-104848804D01*
X114593571Y-104854765D01*
X114616671Y-104863030D01*
X114638849Y-104873520D01*
X114659893Y-104886133D01*
X114679598Y-104900747D01*
X114697777Y-104917223D01*
X114714253Y-104935402D01*
X114728867Y-104955107D01*
X114741480Y-104976151D01*
X114751970Y-104998329D01*
X114760235Y-105021429D01*
X114766196Y-105045227D01*
X114769796Y-105069496D01*
X114771000Y-105094000D01*
X114771000Y-105769000D01*
X114769796Y-105793504D01*
X114766196Y-105817773D01*
X114760235Y-105841571D01*
X114751970Y-105864671D01*
X114741480Y-105886849D01*
X114728867Y-105907893D01*
X114714253Y-105927598D01*
X114697777Y-105945777D01*
X114679598Y-105962253D01*
X114659893Y-105976867D01*
X114638849Y-105989480D01*
X114616671Y-105999970D01*
X114593571Y-106008235D01*
X114569773Y-106014196D01*
X114545504Y-106017796D01*
X114521000Y-106019000D01*
X113571000Y-106019000D01*
X113546496Y-106017796D01*
X113522227Y-106014196D01*
X113498429Y-106008235D01*
X113475329Y-105999970D01*
X113453151Y-105989480D01*
X113432107Y-105976867D01*
X113412402Y-105962253D01*
X113394223Y-105945777D01*
X113377747Y-105927598D01*
X113363133Y-105907893D01*
X113350520Y-105886849D01*
X113340030Y-105864671D01*
X113331765Y-105841571D01*
X113325804Y-105817773D01*
X113322204Y-105793504D01*
X113321000Y-105769000D01*
X113321000Y-105094000D01*
X113322204Y-105069496D01*
X113325804Y-105045227D01*
X113331765Y-105021429D01*
X113340030Y-104998329D01*
X113350520Y-104976151D01*
X113363133Y-104955107D01*
X113377747Y-104935402D01*
X113394223Y-104917223D01*
X113412402Y-104900747D01*
X113432107Y-104886133D01*
X113453151Y-104873520D01*
X113475329Y-104863030D01*
X113498429Y-104854765D01*
X113522227Y-104848804D01*
X113546496Y-104845204D01*
X113571000Y-104844000D01*
X114521000Y-104844000D01*
X114545504Y-104845204D01*
G37*
G36*
X131690504Y-102770204D02*
G01*
X131714773Y-102773804D01*
X131738571Y-102779765D01*
X131761671Y-102788030D01*
X131783849Y-102798520D01*
X131804893Y-102811133D01*
X131824598Y-102825747D01*
X131842777Y-102842223D01*
X131859253Y-102860402D01*
X131873867Y-102880107D01*
X131886480Y-102901151D01*
X131896970Y-102923329D01*
X131905235Y-102946429D01*
X131911196Y-102970227D01*
X131914796Y-102994496D01*
X131916000Y-103019000D01*
X131916000Y-103694000D01*
X131914796Y-103718504D01*
X131911196Y-103742773D01*
X131905235Y-103766571D01*
X131896970Y-103789671D01*
X131886480Y-103811849D01*
X131873867Y-103832893D01*
X131859253Y-103852598D01*
X131842777Y-103870777D01*
X131824598Y-103887253D01*
X131804893Y-103901867D01*
X131783849Y-103914480D01*
X131761671Y-103924970D01*
X131738571Y-103933235D01*
X131714773Y-103939196D01*
X131690504Y-103942796D01*
X131666000Y-103944000D01*
X130716000Y-103944000D01*
X130691496Y-103942796D01*
X130667227Y-103939196D01*
X130643429Y-103933235D01*
X130620329Y-103924970D01*
X130598151Y-103914480D01*
X130577107Y-103901867D01*
X130557402Y-103887253D01*
X130539223Y-103870777D01*
X130522747Y-103852598D01*
X130508133Y-103832893D01*
X130495520Y-103811849D01*
X130485030Y-103789671D01*
X130476765Y-103766571D01*
X130470804Y-103742773D01*
X130467204Y-103718504D01*
X130466000Y-103694000D01*
X130466000Y-103019000D01*
X130467204Y-102994496D01*
X130470804Y-102970227D01*
X130476765Y-102946429D01*
X130485030Y-102923329D01*
X130495520Y-102901151D01*
X130508133Y-102880107D01*
X130522747Y-102860402D01*
X130539223Y-102842223D01*
X130557402Y-102825747D01*
X130577107Y-102811133D01*
X130598151Y-102798520D01*
X130620329Y-102788030D01*
X130643429Y-102779765D01*
X130667227Y-102773804D01*
X130691496Y-102770204D01*
X130716000Y-102769000D01*
X131666000Y-102769000D01*
X131690504Y-102770204D01*
G37*
G36*
X131690504Y-104845204D02*
G01*
X131714773Y-104848804D01*
X131738571Y-104854765D01*
X131761671Y-104863030D01*
X131783849Y-104873520D01*
X131804893Y-104886133D01*
X131824598Y-104900747D01*
X131842777Y-104917223D01*
X131859253Y-104935402D01*
X131873867Y-104955107D01*
X131886480Y-104976151D01*
X131896970Y-104998329D01*
X131905235Y-105021429D01*
X131911196Y-105045227D01*
X131914796Y-105069496D01*
X131916000Y-105094000D01*
X131916000Y-105769000D01*
X131914796Y-105793504D01*
X131911196Y-105817773D01*
X131905235Y-105841571D01*
X131896970Y-105864671D01*
X131886480Y-105886849D01*
X131873867Y-105907893D01*
X131859253Y-105927598D01*
X131842777Y-105945777D01*
X131824598Y-105962253D01*
X131804893Y-105976867D01*
X131783849Y-105989480D01*
X131761671Y-105999970D01*
X131738571Y-106008235D01*
X131714773Y-106014196D01*
X131690504Y-106017796D01*
X131666000Y-106019000D01*
X130716000Y-106019000D01*
X130691496Y-106017796D01*
X130667227Y-106014196D01*
X130643429Y-106008235D01*
X130620329Y-105999970D01*
X130598151Y-105989480D01*
X130577107Y-105976867D01*
X130557402Y-105962253D01*
X130539223Y-105945777D01*
X130522747Y-105927598D01*
X130508133Y-105907893D01*
X130495520Y-105886849D01*
X130485030Y-105864671D01*
X130476765Y-105841571D01*
X130470804Y-105817773D01*
X130467204Y-105793504D01*
X130466000Y-105769000D01*
X130466000Y-105094000D01*
X130467204Y-105069496D01*
X130470804Y-105045227D01*
X130476765Y-105021429D01*
X130485030Y-104998329D01*
X130495520Y-104976151D01*
X130508133Y-104955107D01*
X130522747Y-104935402D01*
X130539223Y-104917223D01*
X130557402Y-104900747D01*
X130577107Y-104886133D01*
X130598151Y-104873520D01*
X130620329Y-104863030D01*
X130643429Y-104854765D01*
X130667227Y-104848804D01*
X130691496Y-104845204D01*
X130716000Y-104844000D01*
X131666000Y-104844000D01*
X131690504Y-104845204D01*
G37*
G36*
X143766504Y-63030204D02*
G01*
X143790773Y-63033804D01*
X143814571Y-63039765D01*
X143837671Y-63048030D01*
X143859849Y-63058520D01*
X143880893Y-63071133D01*
X143900598Y-63085747D01*
X143918777Y-63102223D01*
X143935253Y-63120402D01*
X143949867Y-63140107D01*
X143962480Y-63161151D01*
X143972970Y-63183329D01*
X143981235Y-63206429D01*
X143987196Y-63230227D01*
X143990796Y-63254496D01*
X143992000Y-63279000D01*
X143992000Y-64229000D01*
X143990796Y-64253504D01*
X143987196Y-64277773D01*
X143981235Y-64301571D01*
X143972970Y-64324671D01*
X143962480Y-64346849D01*
X143949867Y-64367893D01*
X143935253Y-64387598D01*
X143918777Y-64405777D01*
X143900598Y-64422253D01*
X143880893Y-64436867D01*
X143859849Y-64449480D01*
X143837671Y-64459970D01*
X143814571Y-64468235D01*
X143790773Y-64474196D01*
X143766504Y-64477796D01*
X143742000Y-64479000D01*
X143067000Y-64479000D01*
X143042496Y-64477796D01*
X143018227Y-64474196D01*
X142994429Y-64468235D01*
X142971329Y-64459970D01*
X142949151Y-64449480D01*
X142928107Y-64436867D01*
X142908402Y-64422253D01*
X142890223Y-64405777D01*
X142873747Y-64387598D01*
X142859133Y-64367893D01*
X142846520Y-64346849D01*
X142836030Y-64324671D01*
X142827765Y-64301571D01*
X142821804Y-64277773D01*
X142818204Y-64253504D01*
X142817000Y-64229000D01*
X142817000Y-63279000D01*
X142818204Y-63254496D01*
X142821804Y-63230227D01*
X142827765Y-63206429D01*
X142836030Y-63183329D01*
X142846520Y-63161151D01*
X142859133Y-63140107D01*
X142873747Y-63120402D01*
X142890223Y-63102223D01*
X142908402Y-63085747D01*
X142928107Y-63071133D01*
X142949151Y-63058520D01*
X142971329Y-63048030D01*
X142994429Y-63039765D01*
X143018227Y-63033804D01*
X143042496Y-63030204D01*
X143067000Y-63029000D01*
X143742000Y-63029000D01*
X143766504Y-63030204D01*
G37*
G36*
X141691504Y-63030204D02*
G01*
X141715773Y-63033804D01*
X141739571Y-63039765D01*
X141762671Y-63048030D01*
X141784849Y-63058520D01*
X141805893Y-63071133D01*
X141825598Y-63085747D01*
X141843777Y-63102223D01*
X141860253Y-63120402D01*
X141874867Y-63140107D01*
X141887480Y-63161151D01*
X141897970Y-63183329D01*
X141906235Y-63206429D01*
X141912196Y-63230227D01*
X141915796Y-63254496D01*
X141917000Y-63279000D01*
X141917000Y-64229000D01*
X141915796Y-64253504D01*
X141912196Y-64277773D01*
X141906235Y-64301571D01*
X141897970Y-64324671D01*
X141887480Y-64346849D01*
X141874867Y-64367893D01*
X141860253Y-64387598D01*
X141843777Y-64405777D01*
X141825598Y-64422253D01*
X141805893Y-64436867D01*
X141784849Y-64449480D01*
X141762671Y-64459970D01*
X141739571Y-64468235D01*
X141715773Y-64474196D01*
X141691504Y-64477796D01*
X141667000Y-64479000D01*
X140992000Y-64479000D01*
X140967496Y-64477796D01*
X140943227Y-64474196D01*
X140919429Y-64468235D01*
X140896329Y-64459970D01*
X140874151Y-64449480D01*
X140853107Y-64436867D01*
X140833402Y-64422253D01*
X140815223Y-64405777D01*
X140798747Y-64387598D01*
X140784133Y-64367893D01*
X140771520Y-64346849D01*
X140761030Y-64324671D01*
X140752765Y-64301571D01*
X140746804Y-64277773D01*
X140743204Y-64253504D01*
X140742000Y-64229000D01*
X140742000Y-63279000D01*
X140743204Y-63254496D01*
X140746804Y-63230227D01*
X140752765Y-63206429D01*
X140761030Y-63183329D01*
X140771520Y-63161151D01*
X140784133Y-63140107D01*
X140798747Y-63120402D01*
X140815223Y-63102223D01*
X140833402Y-63085747D01*
X140853107Y-63071133D01*
X140874151Y-63058520D01*
X140896329Y-63048030D01*
X140919429Y-63039765D01*
X140943227Y-63033804D01*
X140967496Y-63030204D01*
X140992000Y-63029000D01*
X141667000Y-63029000D01*
X141691504Y-63030204D01*
G37*
G36*
X143766504Y-56680204D02*
G01*
X143790773Y-56683804D01*
X143814571Y-56689765D01*
X143837671Y-56698030D01*
X143859849Y-56708520D01*
X143880893Y-56721133D01*
X143900598Y-56735747D01*
X143918777Y-56752223D01*
X143935253Y-56770402D01*
X143949867Y-56790107D01*
X143962480Y-56811151D01*
X143972970Y-56833329D01*
X143981235Y-56856429D01*
X143987196Y-56880227D01*
X143990796Y-56904496D01*
X143992000Y-56929000D01*
X143992000Y-57879000D01*
X143990796Y-57903504D01*
X143987196Y-57927773D01*
X143981235Y-57951571D01*
X143972970Y-57974671D01*
X143962480Y-57996849D01*
X143949867Y-58017893D01*
X143935253Y-58037598D01*
X143918777Y-58055777D01*
X143900598Y-58072253D01*
X143880893Y-58086867D01*
X143859849Y-58099480D01*
X143837671Y-58109970D01*
X143814571Y-58118235D01*
X143790773Y-58124196D01*
X143766504Y-58127796D01*
X143742000Y-58129000D01*
X143067000Y-58129000D01*
X143042496Y-58127796D01*
X143018227Y-58124196D01*
X142994429Y-58118235D01*
X142971329Y-58109970D01*
X142949151Y-58099480D01*
X142928107Y-58086867D01*
X142908402Y-58072253D01*
X142890223Y-58055777D01*
X142873747Y-58037598D01*
X142859133Y-58017893D01*
X142846520Y-57996849D01*
X142836030Y-57974671D01*
X142827765Y-57951571D01*
X142821804Y-57927773D01*
X142818204Y-57903504D01*
X142817000Y-57879000D01*
X142817000Y-56929000D01*
X142818204Y-56904496D01*
X142821804Y-56880227D01*
X142827765Y-56856429D01*
X142836030Y-56833329D01*
X142846520Y-56811151D01*
X142859133Y-56790107D01*
X142873747Y-56770402D01*
X142890223Y-56752223D01*
X142908402Y-56735747D01*
X142928107Y-56721133D01*
X142949151Y-56708520D01*
X142971329Y-56698030D01*
X142994429Y-56689765D01*
X143018227Y-56683804D01*
X143042496Y-56680204D01*
X143067000Y-56679000D01*
X143742000Y-56679000D01*
X143766504Y-56680204D01*
G37*
G36*
X141691504Y-56680204D02*
G01*
X141715773Y-56683804D01*
X141739571Y-56689765D01*
X141762671Y-56698030D01*
X141784849Y-56708520D01*
X141805893Y-56721133D01*
X141825598Y-56735747D01*
X141843777Y-56752223D01*
X141860253Y-56770402D01*
X141874867Y-56790107D01*
X141887480Y-56811151D01*
X141897970Y-56833329D01*
X141906235Y-56856429D01*
X141912196Y-56880227D01*
X141915796Y-56904496D01*
X141917000Y-56929000D01*
X141917000Y-57879000D01*
X141915796Y-57903504D01*
X141912196Y-57927773D01*
X141906235Y-57951571D01*
X141897970Y-57974671D01*
X141887480Y-57996849D01*
X141874867Y-58017893D01*
X141860253Y-58037598D01*
X141843777Y-58055777D01*
X141825598Y-58072253D01*
X141805893Y-58086867D01*
X141784849Y-58099480D01*
X141762671Y-58109970D01*
X141739571Y-58118235D01*
X141715773Y-58124196D01*
X141691504Y-58127796D01*
X141667000Y-58129000D01*
X140992000Y-58129000D01*
X140967496Y-58127796D01*
X140943227Y-58124196D01*
X140919429Y-58118235D01*
X140896329Y-58109970D01*
X140874151Y-58099480D01*
X140853107Y-58086867D01*
X140833402Y-58072253D01*
X140815223Y-58055777D01*
X140798747Y-58037598D01*
X140784133Y-58017893D01*
X140771520Y-57996849D01*
X140761030Y-57974671D01*
X140752765Y-57951571D01*
X140746804Y-57927773D01*
X140743204Y-57903504D01*
X140742000Y-57879000D01*
X140742000Y-56929000D01*
X140743204Y-56904496D01*
X140746804Y-56880227D01*
X140752765Y-56856429D01*
X140761030Y-56833329D01*
X140771520Y-56811151D01*
X140784133Y-56790107D01*
X140798747Y-56770402D01*
X140815223Y-56752223D01*
X140833402Y-56735747D01*
X140853107Y-56721133D01*
X140874151Y-56708520D01*
X140896329Y-56698030D01*
X140919429Y-56689765D01*
X140943227Y-56683804D01*
X140967496Y-56680204D01*
X140992000Y-56679000D01*
X141667000Y-56679000D01*
X141691504Y-56680204D01*
G37*
G36*
X184660504Y-90482524D02*
G01*
X184684773Y-90486124D01*
X184708571Y-90492085D01*
X184731671Y-90500350D01*
X184753849Y-90510840D01*
X184774893Y-90523453D01*
X184794598Y-90538067D01*
X184812777Y-90554543D01*
X184829253Y-90572722D01*
X184843867Y-90592427D01*
X184856480Y-90613471D01*
X184866970Y-90635649D01*
X184875235Y-90658749D01*
X184881196Y-90682547D01*
X184884796Y-90706816D01*
X184886000Y-90731320D01*
X184886000Y-91681320D01*
X184884796Y-91705824D01*
X184881196Y-91730093D01*
X184875235Y-91753891D01*
X184866970Y-91776991D01*
X184856480Y-91799169D01*
X184843867Y-91820213D01*
X184829253Y-91839918D01*
X184812777Y-91858097D01*
X184794598Y-91874573D01*
X184774893Y-91889187D01*
X184753849Y-91901800D01*
X184731671Y-91912290D01*
X184708571Y-91920555D01*
X184684773Y-91926516D01*
X184660504Y-91930116D01*
X184636000Y-91931320D01*
X183961000Y-91931320D01*
X183936496Y-91930116D01*
X183912227Y-91926516D01*
X183888429Y-91920555D01*
X183865329Y-91912290D01*
X183843151Y-91901800D01*
X183822107Y-91889187D01*
X183802402Y-91874573D01*
X183784223Y-91858097D01*
X183767747Y-91839918D01*
X183753133Y-91820213D01*
X183740520Y-91799169D01*
X183730030Y-91776991D01*
X183721765Y-91753891D01*
X183715804Y-91730093D01*
X183712204Y-91705824D01*
X183711000Y-91681320D01*
X183711000Y-90731320D01*
X183712204Y-90706816D01*
X183715804Y-90682547D01*
X183721765Y-90658749D01*
X183730030Y-90635649D01*
X183740520Y-90613471D01*
X183753133Y-90592427D01*
X183767747Y-90572722D01*
X183784223Y-90554543D01*
X183802402Y-90538067D01*
X183822107Y-90523453D01*
X183843151Y-90510840D01*
X183865329Y-90500350D01*
X183888429Y-90492085D01*
X183912227Y-90486124D01*
X183936496Y-90482524D01*
X183961000Y-90481320D01*
X184636000Y-90481320D01*
X184660504Y-90482524D01*
G37*
G36*
X182585504Y-90482524D02*
G01*
X182609773Y-90486124D01*
X182633571Y-90492085D01*
X182656671Y-90500350D01*
X182678849Y-90510840D01*
X182699893Y-90523453D01*
X182719598Y-90538067D01*
X182737777Y-90554543D01*
X182754253Y-90572722D01*
X182768867Y-90592427D01*
X182781480Y-90613471D01*
X182791970Y-90635649D01*
X182800235Y-90658749D01*
X182806196Y-90682547D01*
X182809796Y-90706816D01*
X182811000Y-90731320D01*
X182811000Y-91681320D01*
X182809796Y-91705824D01*
X182806196Y-91730093D01*
X182800235Y-91753891D01*
X182791970Y-91776991D01*
X182781480Y-91799169D01*
X182768867Y-91820213D01*
X182754253Y-91839918D01*
X182737777Y-91858097D01*
X182719598Y-91874573D01*
X182699893Y-91889187D01*
X182678849Y-91901800D01*
X182656671Y-91912290D01*
X182633571Y-91920555D01*
X182609773Y-91926516D01*
X182585504Y-91930116D01*
X182561000Y-91931320D01*
X181886000Y-91931320D01*
X181861496Y-91930116D01*
X181837227Y-91926516D01*
X181813429Y-91920555D01*
X181790329Y-91912290D01*
X181768151Y-91901800D01*
X181747107Y-91889187D01*
X181727402Y-91874573D01*
X181709223Y-91858097D01*
X181692747Y-91839918D01*
X181678133Y-91820213D01*
X181665520Y-91799169D01*
X181655030Y-91776991D01*
X181646765Y-91753891D01*
X181640804Y-91730093D01*
X181637204Y-91705824D01*
X181636000Y-91681320D01*
X181636000Y-90731320D01*
X181637204Y-90706816D01*
X181640804Y-90682547D01*
X181646765Y-90658749D01*
X181655030Y-90635649D01*
X181665520Y-90613471D01*
X181678133Y-90592427D01*
X181692747Y-90572722D01*
X181709223Y-90554543D01*
X181727402Y-90538067D01*
X181747107Y-90523453D01*
X181768151Y-90510840D01*
X181790329Y-90500350D01*
X181813429Y-90492085D01*
X181837227Y-90486124D01*
X181861496Y-90482524D01*
X181886000Y-90481320D01*
X182561000Y-90481320D01*
X182585504Y-90482524D01*
G37*
G36*
X125986504Y-82080204D02*
G01*
X126010773Y-82083804D01*
X126034571Y-82089765D01*
X126057671Y-82098030D01*
X126079849Y-82108520D01*
X126100893Y-82121133D01*
X126120598Y-82135747D01*
X126138777Y-82152223D01*
X126155253Y-82170402D01*
X126169867Y-82190107D01*
X126182480Y-82211151D01*
X126192970Y-82233329D01*
X126201235Y-82256429D01*
X126207196Y-82280227D01*
X126210796Y-82304496D01*
X126212000Y-82329000D01*
X126212000Y-83279000D01*
X126210796Y-83303504D01*
X126207196Y-83327773D01*
X126201235Y-83351571D01*
X126192970Y-83374671D01*
X126182480Y-83396849D01*
X126169867Y-83417893D01*
X126155253Y-83437598D01*
X126138777Y-83455777D01*
X126120598Y-83472253D01*
X126100893Y-83486867D01*
X126079849Y-83499480D01*
X126057671Y-83509970D01*
X126034571Y-83518235D01*
X126010773Y-83524196D01*
X125986504Y-83527796D01*
X125962000Y-83529000D01*
X125287000Y-83529000D01*
X125262496Y-83527796D01*
X125238227Y-83524196D01*
X125214429Y-83518235D01*
X125191329Y-83509970D01*
X125169151Y-83499480D01*
X125148107Y-83486867D01*
X125128402Y-83472253D01*
X125110223Y-83455777D01*
X125093747Y-83437598D01*
X125079133Y-83417893D01*
X125066520Y-83396849D01*
X125056030Y-83374671D01*
X125047765Y-83351571D01*
X125041804Y-83327773D01*
X125038204Y-83303504D01*
X125037000Y-83279000D01*
X125037000Y-82329000D01*
X125038204Y-82304496D01*
X125041804Y-82280227D01*
X125047765Y-82256429D01*
X125056030Y-82233329D01*
X125066520Y-82211151D01*
X125079133Y-82190107D01*
X125093747Y-82170402D01*
X125110223Y-82152223D01*
X125128402Y-82135747D01*
X125148107Y-82121133D01*
X125169151Y-82108520D01*
X125191329Y-82098030D01*
X125214429Y-82089765D01*
X125238227Y-82083804D01*
X125262496Y-82080204D01*
X125287000Y-82079000D01*
X125962000Y-82079000D01*
X125986504Y-82080204D01*
G37*
G36*
X123911504Y-82080204D02*
G01*
X123935773Y-82083804D01*
X123959571Y-82089765D01*
X123982671Y-82098030D01*
X124004849Y-82108520D01*
X124025893Y-82121133D01*
X124045598Y-82135747D01*
X124063777Y-82152223D01*
X124080253Y-82170402D01*
X124094867Y-82190107D01*
X124107480Y-82211151D01*
X124117970Y-82233329D01*
X124126235Y-82256429D01*
X124132196Y-82280227D01*
X124135796Y-82304496D01*
X124137000Y-82329000D01*
X124137000Y-83279000D01*
X124135796Y-83303504D01*
X124132196Y-83327773D01*
X124126235Y-83351571D01*
X124117970Y-83374671D01*
X124107480Y-83396849D01*
X124094867Y-83417893D01*
X124080253Y-83437598D01*
X124063777Y-83455777D01*
X124045598Y-83472253D01*
X124025893Y-83486867D01*
X124004849Y-83499480D01*
X123982671Y-83509970D01*
X123959571Y-83518235D01*
X123935773Y-83524196D01*
X123911504Y-83527796D01*
X123887000Y-83529000D01*
X123212000Y-83529000D01*
X123187496Y-83527796D01*
X123163227Y-83524196D01*
X123139429Y-83518235D01*
X123116329Y-83509970D01*
X123094151Y-83499480D01*
X123073107Y-83486867D01*
X123053402Y-83472253D01*
X123035223Y-83455777D01*
X123018747Y-83437598D01*
X123004133Y-83417893D01*
X122991520Y-83396849D01*
X122981030Y-83374671D01*
X122972765Y-83351571D01*
X122966804Y-83327773D01*
X122963204Y-83303504D01*
X122962000Y-83279000D01*
X122962000Y-82329000D01*
X122963204Y-82304496D01*
X122966804Y-82280227D01*
X122972765Y-82256429D01*
X122981030Y-82233329D01*
X122991520Y-82211151D01*
X123004133Y-82190107D01*
X123018747Y-82170402D01*
X123035223Y-82152223D01*
X123053402Y-82135747D01*
X123073107Y-82121133D01*
X123094151Y-82108520D01*
X123116329Y-82098030D01*
X123139429Y-82089765D01*
X123163227Y-82083804D01*
X123187496Y-82080204D01*
X123212000Y-82079000D01*
X123887000Y-82079000D01*
X123911504Y-82080204D01*
G37*
G36*
X125986504Y-63030204D02*
G01*
X126010773Y-63033804D01*
X126034571Y-63039765D01*
X126057671Y-63048030D01*
X126079849Y-63058520D01*
X126100893Y-63071133D01*
X126120598Y-63085747D01*
X126138777Y-63102223D01*
X126155253Y-63120402D01*
X126169867Y-63140107D01*
X126182480Y-63161151D01*
X126192970Y-63183329D01*
X126201235Y-63206429D01*
X126207196Y-63230227D01*
X126210796Y-63254496D01*
X126212000Y-63279000D01*
X126212000Y-64229000D01*
X126210796Y-64253504D01*
X126207196Y-64277773D01*
X126201235Y-64301571D01*
X126192970Y-64324671D01*
X126182480Y-64346849D01*
X126169867Y-64367893D01*
X126155253Y-64387598D01*
X126138777Y-64405777D01*
X126120598Y-64422253D01*
X126100893Y-64436867D01*
X126079849Y-64449480D01*
X126057671Y-64459970D01*
X126034571Y-64468235D01*
X126010773Y-64474196D01*
X125986504Y-64477796D01*
X125962000Y-64479000D01*
X125287000Y-64479000D01*
X125262496Y-64477796D01*
X125238227Y-64474196D01*
X125214429Y-64468235D01*
X125191329Y-64459970D01*
X125169151Y-64449480D01*
X125148107Y-64436867D01*
X125128402Y-64422253D01*
X125110223Y-64405777D01*
X125093747Y-64387598D01*
X125079133Y-64367893D01*
X125066520Y-64346849D01*
X125056030Y-64324671D01*
X125047765Y-64301571D01*
X125041804Y-64277773D01*
X125038204Y-64253504D01*
X125037000Y-64229000D01*
X125037000Y-63279000D01*
X125038204Y-63254496D01*
X125041804Y-63230227D01*
X125047765Y-63206429D01*
X125056030Y-63183329D01*
X125066520Y-63161151D01*
X125079133Y-63140107D01*
X125093747Y-63120402D01*
X125110223Y-63102223D01*
X125128402Y-63085747D01*
X125148107Y-63071133D01*
X125169151Y-63058520D01*
X125191329Y-63048030D01*
X125214429Y-63039765D01*
X125238227Y-63033804D01*
X125262496Y-63030204D01*
X125287000Y-63029000D01*
X125962000Y-63029000D01*
X125986504Y-63030204D01*
G37*
G36*
X123911504Y-63030204D02*
G01*
X123935773Y-63033804D01*
X123959571Y-63039765D01*
X123982671Y-63048030D01*
X124004849Y-63058520D01*
X124025893Y-63071133D01*
X124045598Y-63085747D01*
X124063777Y-63102223D01*
X124080253Y-63120402D01*
X124094867Y-63140107D01*
X124107480Y-63161151D01*
X124117970Y-63183329D01*
X124126235Y-63206429D01*
X124132196Y-63230227D01*
X124135796Y-63254496D01*
X124137000Y-63279000D01*
X124137000Y-64229000D01*
X124135796Y-64253504D01*
X124132196Y-64277773D01*
X124126235Y-64301571D01*
X124117970Y-64324671D01*
X124107480Y-64346849D01*
X124094867Y-64367893D01*
X124080253Y-64387598D01*
X124063777Y-64405777D01*
X124045598Y-64422253D01*
X124025893Y-64436867D01*
X124004849Y-64449480D01*
X123982671Y-64459970D01*
X123959571Y-64468235D01*
X123935773Y-64474196D01*
X123911504Y-64477796D01*
X123887000Y-64479000D01*
X123212000Y-64479000D01*
X123187496Y-64477796D01*
X123163227Y-64474196D01*
X123139429Y-64468235D01*
X123116329Y-64459970D01*
X123094151Y-64449480D01*
X123073107Y-64436867D01*
X123053402Y-64422253D01*
X123035223Y-64405777D01*
X123018747Y-64387598D01*
X123004133Y-64367893D01*
X122991520Y-64346849D01*
X122981030Y-64324671D01*
X122972765Y-64301571D01*
X122966804Y-64277773D01*
X122963204Y-64253504D01*
X122962000Y-64229000D01*
X122962000Y-63279000D01*
X122963204Y-63254496D01*
X122966804Y-63230227D01*
X122972765Y-63206429D01*
X122981030Y-63183329D01*
X122991520Y-63161151D01*
X123004133Y-63140107D01*
X123018747Y-63120402D01*
X123035223Y-63102223D01*
X123053402Y-63085747D01*
X123073107Y-63071133D01*
X123094151Y-63058520D01*
X123116329Y-63048030D01*
X123139429Y-63039765D01*
X123163227Y-63033804D01*
X123187496Y-63030204D01*
X123212000Y-63029000D01*
X123887000Y-63029000D01*
X123911504Y-63030204D01*
G37*
G36*
X172000304Y-105238904D02*
G01*
X172024573Y-105242504D01*
X172048371Y-105248465D01*
X172071471Y-105256730D01*
X172093649Y-105267220D01*
X172114693Y-105279833D01*
X172134398Y-105294447D01*
X172152577Y-105310923D01*
X172169053Y-105329102D01*
X172183667Y-105348807D01*
X172196280Y-105369851D01*
X172206770Y-105392029D01*
X172215035Y-105415129D01*
X172220996Y-105438927D01*
X172224596Y-105463196D01*
X172225800Y-105487700D01*
X172225800Y-106162700D01*
X172224596Y-106187204D01*
X172220996Y-106211473D01*
X172215035Y-106235271D01*
X172206770Y-106258371D01*
X172196280Y-106280549D01*
X172183667Y-106301593D01*
X172169053Y-106321298D01*
X172152577Y-106339477D01*
X172134398Y-106355953D01*
X172114693Y-106370567D01*
X172093649Y-106383180D01*
X172071471Y-106393670D01*
X172048371Y-106401935D01*
X172024573Y-106407896D01*
X172000304Y-106411496D01*
X171975800Y-106412700D01*
X171025800Y-106412700D01*
X171001296Y-106411496D01*
X170977027Y-106407896D01*
X170953229Y-106401935D01*
X170930129Y-106393670D01*
X170907951Y-106383180D01*
X170886907Y-106370567D01*
X170867202Y-106355953D01*
X170849023Y-106339477D01*
X170832547Y-106321298D01*
X170817933Y-106301593D01*
X170805320Y-106280549D01*
X170794830Y-106258371D01*
X170786565Y-106235271D01*
X170780604Y-106211473D01*
X170777004Y-106187204D01*
X170775800Y-106162700D01*
X170775800Y-105487700D01*
X170777004Y-105463196D01*
X170780604Y-105438927D01*
X170786565Y-105415129D01*
X170794830Y-105392029D01*
X170805320Y-105369851D01*
X170817933Y-105348807D01*
X170832547Y-105329102D01*
X170849023Y-105310923D01*
X170867202Y-105294447D01*
X170886907Y-105279833D01*
X170907951Y-105267220D01*
X170930129Y-105256730D01*
X170953229Y-105248465D01*
X170977027Y-105242504D01*
X171001296Y-105238904D01*
X171025800Y-105237700D01*
X171975800Y-105237700D01*
X172000304Y-105238904D01*
G37*
G36*
X172000304Y-103163904D02*
G01*
X172024573Y-103167504D01*
X172048371Y-103173465D01*
X172071471Y-103181730D01*
X172093649Y-103192220D01*
X172114693Y-103204833D01*
X172134398Y-103219447D01*
X172152577Y-103235923D01*
X172169053Y-103254102D01*
X172183667Y-103273807D01*
X172196280Y-103294851D01*
X172206770Y-103317029D01*
X172215035Y-103340129D01*
X172220996Y-103363927D01*
X172224596Y-103388196D01*
X172225800Y-103412700D01*
X172225800Y-104087700D01*
X172224596Y-104112204D01*
X172220996Y-104136473D01*
X172215035Y-104160271D01*
X172206770Y-104183371D01*
X172196280Y-104205549D01*
X172183667Y-104226593D01*
X172169053Y-104246298D01*
X172152577Y-104264477D01*
X172134398Y-104280953D01*
X172114693Y-104295567D01*
X172093649Y-104308180D01*
X172071471Y-104318670D01*
X172048371Y-104326935D01*
X172024573Y-104332896D01*
X172000304Y-104336496D01*
X171975800Y-104337700D01*
X171025800Y-104337700D01*
X171001296Y-104336496D01*
X170977027Y-104332896D01*
X170953229Y-104326935D01*
X170930129Y-104318670D01*
X170907951Y-104308180D01*
X170886907Y-104295567D01*
X170867202Y-104280953D01*
X170849023Y-104264477D01*
X170832547Y-104246298D01*
X170817933Y-104226593D01*
X170805320Y-104205549D01*
X170794830Y-104183371D01*
X170786565Y-104160271D01*
X170780604Y-104136473D01*
X170777004Y-104112204D01*
X170775800Y-104087700D01*
X170775800Y-103412700D01*
X170777004Y-103388196D01*
X170780604Y-103363927D01*
X170786565Y-103340129D01*
X170794830Y-103317029D01*
X170805320Y-103294851D01*
X170817933Y-103273807D01*
X170832547Y-103254102D01*
X170849023Y-103235923D01*
X170867202Y-103219447D01*
X170886907Y-103204833D01*
X170907951Y-103192220D01*
X170930129Y-103181730D01*
X170953229Y-103173465D01*
X170977027Y-103167504D01*
X171001296Y-103163904D01*
X171025800Y-103162700D01*
X171975800Y-103162700D01*
X172000304Y-103163904D01*
G37*
G36*
X125986504Y-56680204D02*
G01*
X126010773Y-56683804D01*
X126034571Y-56689765D01*
X126057671Y-56698030D01*
X126079849Y-56708520D01*
X126100893Y-56721133D01*
X126120598Y-56735747D01*
X126138777Y-56752223D01*
X126155253Y-56770402D01*
X126169867Y-56790107D01*
X126182480Y-56811151D01*
X126192970Y-56833329D01*
X126201235Y-56856429D01*
X126207196Y-56880227D01*
X126210796Y-56904496D01*
X126212000Y-56929000D01*
X126212000Y-57879000D01*
X126210796Y-57903504D01*
X126207196Y-57927773D01*
X126201235Y-57951571D01*
X126192970Y-57974671D01*
X126182480Y-57996849D01*
X126169867Y-58017893D01*
X126155253Y-58037598D01*
X126138777Y-58055777D01*
X126120598Y-58072253D01*
X126100893Y-58086867D01*
X126079849Y-58099480D01*
X126057671Y-58109970D01*
X126034571Y-58118235D01*
X126010773Y-58124196D01*
X125986504Y-58127796D01*
X125962000Y-58129000D01*
X125287000Y-58129000D01*
X125262496Y-58127796D01*
X125238227Y-58124196D01*
X125214429Y-58118235D01*
X125191329Y-58109970D01*
X125169151Y-58099480D01*
X125148107Y-58086867D01*
X125128402Y-58072253D01*
X125110223Y-58055777D01*
X125093747Y-58037598D01*
X125079133Y-58017893D01*
X125066520Y-57996849D01*
X125056030Y-57974671D01*
X125047765Y-57951571D01*
X125041804Y-57927773D01*
X125038204Y-57903504D01*
X125037000Y-57879000D01*
X125037000Y-56929000D01*
X125038204Y-56904496D01*
X125041804Y-56880227D01*
X125047765Y-56856429D01*
X125056030Y-56833329D01*
X125066520Y-56811151D01*
X125079133Y-56790107D01*
X125093747Y-56770402D01*
X125110223Y-56752223D01*
X125128402Y-56735747D01*
X125148107Y-56721133D01*
X125169151Y-56708520D01*
X125191329Y-56698030D01*
X125214429Y-56689765D01*
X125238227Y-56683804D01*
X125262496Y-56680204D01*
X125287000Y-56679000D01*
X125962000Y-56679000D01*
X125986504Y-56680204D01*
G37*
G36*
X123911504Y-56680204D02*
G01*
X123935773Y-56683804D01*
X123959571Y-56689765D01*
X123982671Y-56698030D01*
X124004849Y-56708520D01*
X124025893Y-56721133D01*
X124045598Y-56735747D01*
X124063777Y-56752223D01*
X124080253Y-56770402D01*
X124094867Y-56790107D01*
X124107480Y-56811151D01*
X124117970Y-56833329D01*
X124126235Y-56856429D01*
X124132196Y-56880227D01*
X124135796Y-56904496D01*
X124137000Y-56929000D01*
X124137000Y-57879000D01*
X124135796Y-57903504D01*
X124132196Y-57927773D01*
X124126235Y-57951571D01*
X124117970Y-57974671D01*
X124107480Y-57996849D01*
X124094867Y-58017893D01*
X124080253Y-58037598D01*
X124063777Y-58055777D01*
X124045598Y-58072253D01*
X124025893Y-58086867D01*
X124004849Y-58099480D01*
X123982671Y-58109970D01*
X123959571Y-58118235D01*
X123935773Y-58124196D01*
X123911504Y-58127796D01*
X123887000Y-58129000D01*
X123212000Y-58129000D01*
X123187496Y-58127796D01*
X123163227Y-58124196D01*
X123139429Y-58118235D01*
X123116329Y-58109970D01*
X123094151Y-58099480D01*
X123073107Y-58086867D01*
X123053402Y-58072253D01*
X123035223Y-58055777D01*
X123018747Y-58037598D01*
X123004133Y-58017893D01*
X122991520Y-57996849D01*
X122981030Y-57974671D01*
X122972765Y-57951571D01*
X122966804Y-57927773D01*
X122963204Y-57903504D01*
X122962000Y-57879000D01*
X122962000Y-56929000D01*
X122963204Y-56904496D01*
X122966804Y-56880227D01*
X122972765Y-56856429D01*
X122981030Y-56833329D01*
X122991520Y-56811151D01*
X123004133Y-56790107D01*
X123018747Y-56770402D01*
X123035223Y-56752223D01*
X123053402Y-56735747D01*
X123073107Y-56721133D01*
X123094151Y-56708520D01*
X123116329Y-56698030D01*
X123139429Y-56689765D01*
X123163227Y-56683804D01*
X123187496Y-56680204D01*
X123212000Y-56679000D01*
X123887000Y-56679000D01*
X123911504Y-56680204D01*
G37*
G36*
X106131504Y-82080204D02*
G01*
X106155773Y-82083804D01*
X106179571Y-82089765D01*
X106202671Y-82098030D01*
X106224849Y-82108520D01*
X106245893Y-82121133D01*
X106265598Y-82135747D01*
X106283777Y-82152223D01*
X106300253Y-82170402D01*
X106314867Y-82190107D01*
X106327480Y-82211151D01*
X106337970Y-82233329D01*
X106346235Y-82256429D01*
X106352196Y-82280227D01*
X106355796Y-82304496D01*
X106357000Y-82329000D01*
X106357000Y-83279000D01*
X106355796Y-83303504D01*
X106352196Y-83327773D01*
X106346235Y-83351571D01*
X106337970Y-83374671D01*
X106327480Y-83396849D01*
X106314867Y-83417893D01*
X106300253Y-83437598D01*
X106283777Y-83455777D01*
X106265598Y-83472253D01*
X106245893Y-83486867D01*
X106224849Y-83499480D01*
X106202671Y-83509970D01*
X106179571Y-83518235D01*
X106155773Y-83524196D01*
X106131504Y-83527796D01*
X106107000Y-83529000D01*
X105432000Y-83529000D01*
X105407496Y-83527796D01*
X105383227Y-83524196D01*
X105359429Y-83518235D01*
X105336329Y-83509970D01*
X105314151Y-83499480D01*
X105293107Y-83486867D01*
X105273402Y-83472253D01*
X105255223Y-83455777D01*
X105238747Y-83437598D01*
X105224133Y-83417893D01*
X105211520Y-83396849D01*
X105201030Y-83374671D01*
X105192765Y-83351571D01*
X105186804Y-83327773D01*
X105183204Y-83303504D01*
X105182000Y-83279000D01*
X105182000Y-82329000D01*
X105183204Y-82304496D01*
X105186804Y-82280227D01*
X105192765Y-82256429D01*
X105201030Y-82233329D01*
X105211520Y-82211151D01*
X105224133Y-82190107D01*
X105238747Y-82170402D01*
X105255223Y-82152223D01*
X105273402Y-82135747D01*
X105293107Y-82121133D01*
X105314151Y-82108520D01*
X105336329Y-82098030D01*
X105359429Y-82089765D01*
X105383227Y-82083804D01*
X105407496Y-82080204D01*
X105432000Y-82079000D01*
X106107000Y-82079000D01*
X106131504Y-82080204D01*
G37*
G36*
X108206504Y-82080204D02*
G01*
X108230773Y-82083804D01*
X108254571Y-82089765D01*
X108277671Y-82098030D01*
X108299849Y-82108520D01*
X108320893Y-82121133D01*
X108340598Y-82135747D01*
X108358777Y-82152223D01*
X108375253Y-82170402D01*
X108389867Y-82190107D01*
X108402480Y-82211151D01*
X108412970Y-82233329D01*
X108421235Y-82256429D01*
X108427196Y-82280227D01*
X108430796Y-82304496D01*
X108432000Y-82329000D01*
X108432000Y-83279000D01*
X108430796Y-83303504D01*
X108427196Y-83327773D01*
X108421235Y-83351571D01*
X108412970Y-83374671D01*
X108402480Y-83396849D01*
X108389867Y-83417893D01*
X108375253Y-83437598D01*
X108358777Y-83455777D01*
X108340598Y-83472253D01*
X108320893Y-83486867D01*
X108299849Y-83499480D01*
X108277671Y-83509970D01*
X108254571Y-83518235D01*
X108230773Y-83524196D01*
X108206504Y-83527796D01*
X108182000Y-83529000D01*
X107507000Y-83529000D01*
X107482496Y-83527796D01*
X107458227Y-83524196D01*
X107434429Y-83518235D01*
X107411329Y-83509970D01*
X107389151Y-83499480D01*
X107368107Y-83486867D01*
X107348402Y-83472253D01*
X107330223Y-83455777D01*
X107313747Y-83437598D01*
X107299133Y-83417893D01*
X107286520Y-83396849D01*
X107276030Y-83374671D01*
X107267765Y-83351571D01*
X107261804Y-83327773D01*
X107258204Y-83303504D01*
X107257000Y-83279000D01*
X107257000Y-82329000D01*
X107258204Y-82304496D01*
X107261804Y-82280227D01*
X107267765Y-82256429D01*
X107276030Y-82233329D01*
X107286520Y-82211151D01*
X107299133Y-82190107D01*
X107313747Y-82170402D01*
X107330223Y-82152223D01*
X107348402Y-82135747D01*
X107368107Y-82121133D01*
X107389151Y-82108520D01*
X107411329Y-82098030D01*
X107434429Y-82089765D01*
X107458227Y-82083804D01*
X107482496Y-82080204D01*
X107507000Y-82079000D01*
X108182000Y-82079000D01*
X108206504Y-82080204D01*
G37*
G36*
X184660504Y-95415204D02*
G01*
X184684773Y-95418804D01*
X184708571Y-95424765D01*
X184731671Y-95433030D01*
X184753849Y-95443520D01*
X184774893Y-95456133D01*
X184794598Y-95470747D01*
X184812777Y-95487223D01*
X184829253Y-95505402D01*
X184843867Y-95525107D01*
X184856480Y-95546151D01*
X184866970Y-95568329D01*
X184875235Y-95591429D01*
X184881196Y-95615227D01*
X184884796Y-95639496D01*
X184886000Y-95664000D01*
X184886000Y-96614000D01*
X184884796Y-96638504D01*
X184881196Y-96662773D01*
X184875235Y-96686571D01*
X184866970Y-96709671D01*
X184856480Y-96731849D01*
X184843867Y-96752893D01*
X184829253Y-96772598D01*
X184812777Y-96790777D01*
X184794598Y-96807253D01*
X184774893Y-96821867D01*
X184753849Y-96834480D01*
X184731671Y-96844970D01*
X184708571Y-96853235D01*
X184684773Y-96859196D01*
X184660504Y-96862796D01*
X184636000Y-96864000D01*
X183961000Y-96864000D01*
X183936496Y-96862796D01*
X183912227Y-96859196D01*
X183888429Y-96853235D01*
X183865329Y-96844970D01*
X183843151Y-96834480D01*
X183822107Y-96821867D01*
X183802402Y-96807253D01*
X183784223Y-96790777D01*
X183767747Y-96772598D01*
X183753133Y-96752893D01*
X183740520Y-96731849D01*
X183730030Y-96709671D01*
X183721765Y-96686571D01*
X183715804Y-96662773D01*
X183712204Y-96638504D01*
X183711000Y-96614000D01*
X183711000Y-95664000D01*
X183712204Y-95639496D01*
X183715804Y-95615227D01*
X183721765Y-95591429D01*
X183730030Y-95568329D01*
X183740520Y-95546151D01*
X183753133Y-95525107D01*
X183767747Y-95505402D01*
X183784223Y-95487223D01*
X183802402Y-95470747D01*
X183822107Y-95456133D01*
X183843151Y-95443520D01*
X183865329Y-95433030D01*
X183888429Y-95424765D01*
X183912227Y-95418804D01*
X183936496Y-95415204D01*
X183961000Y-95414000D01*
X184636000Y-95414000D01*
X184660504Y-95415204D01*
G37*
G36*
X182585504Y-95415204D02*
G01*
X182609773Y-95418804D01*
X182633571Y-95424765D01*
X182656671Y-95433030D01*
X182678849Y-95443520D01*
X182699893Y-95456133D01*
X182719598Y-95470747D01*
X182737777Y-95487223D01*
X182754253Y-95505402D01*
X182768867Y-95525107D01*
X182781480Y-95546151D01*
X182791970Y-95568329D01*
X182800235Y-95591429D01*
X182806196Y-95615227D01*
X182809796Y-95639496D01*
X182811000Y-95664000D01*
X182811000Y-96614000D01*
X182809796Y-96638504D01*
X182806196Y-96662773D01*
X182800235Y-96686571D01*
X182791970Y-96709671D01*
X182781480Y-96731849D01*
X182768867Y-96752893D01*
X182754253Y-96772598D01*
X182737777Y-96790777D01*
X182719598Y-96807253D01*
X182699893Y-96821867D01*
X182678849Y-96834480D01*
X182656671Y-96844970D01*
X182633571Y-96853235D01*
X182609773Y-96859196D01*
X182585504Y-96862796D01*
X182561000Y-96864000D01*
X181886000Y-96864000D01*
X181861496Y-96862796D01*
X181837227Y-96859196D01*
X181813429Y-96853235D01*
X181790329Y-96844970D01*
X181768151Y-96834480D01*
X181747107Y-96821867D01*
X181727402Y-96807253D01*
X181709223Y-96790777D01*
X181692747Y-96772598D01*
X181678133Y-96752893D01*
X181665520Y-96731849D01*
X181655030Y-96709671D01*
X181646765Y-96686571D01*
X181640804Y-96662773D01*
X181637204Y-96638504D01*
X181636000Y-96614000D01*
X181636000Y-95664000D01*
X181637204Y-95639496D01*
X181640804Y-95615227D01*
X181646765Y-95591429D01*
X181655030Y-95568329D01*
X181665520Y-95546151D01*
X181678133Y-95525107D01*
X181692747Y-95505402D01*
X181709223Y-95487223D01*
X181727402Y-95470747D01*
X181747107Y-95456133D01*
X181768151Y-95443520D01*
X181790329Y-95433030D01*
X181813429Y-95424765D01*
X181837227Y-95418804D01*
X181861496Y-95415204D01*
X181886000Y-95414000D01*
X182561000Y-95414000D01*
X182585504Y-95415204D01*
G37*
G36*
X108206504Y-63030204D02*
G01*
X108230773Y-63033804D01*
X108254571Y-63039765D01*
X108277671Y-63048030D01*
X108299849Y-63058520D01*
X108320893Y-63071133D01*
X108340598Y-63085747D01*
X108358777Y-63102223D01*
X108375253Y-63120402D01*
X108389867Y-63140107D01*
X108402480Y-63161151D01*
X108412970Y-63183329D01*
X108421235Y-63206429D01*
X108427196Y-63230227D01*
X108430796Y-63254496D01*
X108432000Y-63279000D01*
X108432000Y-64229000D01*
X108430796Y-64253504D01*
X108427196Y-64277773D01*
X108421235Y-64301571D01*
X108412970Y-64324671D01*
X108402480Y-64346849D01*
X108389867Y-64367893D01*
X108375253Y-64387598D01*
X108358777Y-64405777D01*
X108340598Y-64422253D01*
X108320893Y-64436867D01*
X108299849Y-64449480D01*
X108277671Y-64459970D01*
X108254571Y-64468235D01*
X108230773Y-64474196D01*
X108206504Y-64477796D01*
X108182000Y-64479000D01*
X107507000Y-64479000D01*
X107482496Y-64477796D01*
X107458227Y-64474196D01*
X107434429Y-64468235D01*
X107411329Y-64459970D01*
X107389151Y-64449480D01*
X107368107Y-64436867D01*
X107348402Y-64422253D01*
X107330223Y-64405777D01*
X107313747Y-64387598D01*
X107299133Y-64367893D01*
X107286520Y-64346849D01*
X107276030Y-64324671D01*
X107267765Y-64301571D01*
X107261804Y-64277773D01*
X107258204Y-64253504D01*
X107257000Y-64229000D01*
X107257000Y-63279000D01*
X107258204Y-63254496D01*
X107261804Y-63230227D01*
X107267765Y-63206429D01*
X107276030Y-63183329D01*
X107286520Y-63161151D01*
X107299133Y-63140107D01*
X107313747Y-63120402D01*
X107330223Y-63102223D01*
X107348402Y-63085747D01*
X107368107Y-63071133D01*
X107389151Y-63058520D01*
X107411329Y-63048030D01*
X107434429Y-63039765D01*
X107458227Y-63033804D01*
X107482496Y-63030204D01*
X107507000Y-63029000D01*
X108182000Y-63029000D01*
X108206504Y-63030204D01*
G37*
G36*
X106131504Y-63030204D02*
G01*
X106155773Y-63033804D01*
X106179571Y-63039765D01*
X106202671Y-63048030D01*
X106224849Y-63058520D01*
X106245893Y-63071133D01*
X106265598Y-63085747D01*
X106283777Y-63102223D01*
X106300253Y-63120402D01*
X106314867Y-63140107D01*
X106327480Y-63161151D01*
X106337970Y-63183329D01*
X106346235Y-63206429D01*
X106352196Y-63230227D01*
X106355796Y-63254496D01*
X106357000Y-63279000D01*
X106357000Y-64229000D01*
X106355796Y-64253504D01*
X106352196Y-64277773D01*
X106346235Y-64301571D01*
X106337970Y-64324671D01*
X106327480Y-64346849D01*
X106314867Y-64367893D01*
X106300253Y-64387598D01*
X106283777Y-64405777D01*
X106265598Y-64422253D01*
X106245893Y-64436867D01*
X106224849Y-64449480D01*
X106202671Y-64459970D01*
X106179571Y-64468235D01*
X106155773Y-64474196D01*
X106131504Y-64477796D01*
X106107000Y-64479000D01*
X105432000Y-64479000D01*
X105407496Y-64477796D01*
X105383227Y-64474196D01*
X105359429Y-64468235D01*
X105336329Y-64459970D01*
X105314151Y-64449480D01*
X105293107Y-64436867D01*
X105273402Y-64422253D01*
X105255223Y-64405777D01*
X105238747Y-64387598D01*
X105224133Y-64367893D01*
X105211520Y-64346849D01*
X105201030Y-64324671D01*
X105192765Y-64301571D01*
X105186804Y-64277773D01*
X105183204Y-64253504D01*
X105182000Y-64229000D01*
X105182000Y-63279000D01*
X105183204Y-63254496D01*
X105186804Y-63230227D01*
X105192765Y-63206429D01*
X105201030Y-63183329D01*
X105211520Y-63161151D01*
X105224133Y-63140107D01*
X105238747Y-63120402D01*
X105255223Y-63102223D01*
X105273402Y-63085747D01*
X105293107Y-63071133D01*
X105314151Y-63058520D01*
X105336329Y-63048030D01*
X105359429Y-63039765D01*
X105383227Y-63033804D01*
X105407496Y-63030204D01*
X105432000Y-63029000D01*
X106107000Y-63029000D01*
X106131504Y-63030204D01*
G37*
G36*
X108206504Y-56680204D02*
G01*
X108230773Y-56683804D01*
X108254571Y-56689765D01*
X108277671Y-56698030D01*
X108299849Y-56708520D01*
X108320893Y-56721133D01*
X108340598Y-56735747D01*
X108358777Y-56752223D01*
X108375253Y-56770402D01*
X108389867Y-56790107D01*
X108402480Y-56811151D01*
X108412970Y-56833329D01*
X108421235Y-56856429D01*
X108427196Y-56880227D01*
X108430796Y-56904496D01*
X108432000Y-56929000D01*
X108432000Y-57879000D01*
X108430796Y-57903504D01*
X108427196Y-57927773D01*
X108421235Y-57951571D01*
X108412970Y-57974671D01*
X108402480Y-57996849D01*
X108389867Y-58017893D01*
X108375253Y-58037598D01*
X108358777Y-58055777D01*
X108340598Y-58072253D01*
X108320893Y-58086867D01*
X108299849Y-58099480D01*
X108277671Y-58109970D01*
X108254571Y-58118235D01*
X108230773Y-58124196D01*
X108206504Y-58127796D01*
X108182000Y-58129000D01*
X107507000Y-58129000D01*
X107482496Y-58127796D01*
X107458227Y-58124196D01*
X107434429Y-58118235D01*
X107411329Y-58109970D01*
X107389151Y-58099480D01*
X107368107Y-58086867D01*
X107348402Y-58072253D01*
X107330223Y-58055777D01*
X107313747Y-58037598D01*
X107299133Y-58017893D01*
X107286520Y-57996849D01*
X107276030Y-57974671D01*
X107267765Y-57951571D01*
X107261804Y-57927773D01*
X107258204Y-57903504D01*
X107257000Y-57879000D01*
X107257000Y-56929000D01*
X107258204Y-56904496D01*
X107261804Y-56880227D01*
X107267765Y-56856429D01*
X107276030Y-56833329D01*
X107286520Y-56811151D01*
X107299133Y-56790107D01*
X107313747Y-56770402D01*
X107330223Y-56752223D01*
X107348402Y-56735747D01*
X107368107Y-56721133D01*
X107389151Y-56708520D01*
X107411329Y-56698030D01*
X107434429Y-56689765D01*
X107458227Y-56683804D01*
X107482496Y-56680204D01*
X107507000Y-56679000D01*
X108182000Y-56679000D01*
X108206504Y-56680204D01*
G37*
G36*
X106131504Y-56680204D02*
G01*
X106155773Y-56683804D01*
X106179571Y-56689765D01*
X106202671Y-56698030D01*
X106224849Y-56708520D01*
X106245893Y-56721133D01*
X106265598Y-56735747D01*
X106283777Y-56752223D01*
X106300253Y-56770402D01*
X106314867Y-56790107D01*
X106327480Y-56811151D01*
X106337970Y-56833329D01*
X106346235Y-56856429D01*
X106352196Y-56880227D01*
X106355796Y-56904496D01*
X106357000Y-56929000D01*
X106357000Y-57879000D01*
X106355796Y-57903504D01*
X106352196Y-57927773D01*
X106346235Y-57951571D01*
X106337970Y-57974671D01*
X106327480Y-57996849D01*
X106314867Y-58017893D01*
X106300253Y-58037598D01*
X106283777Y-58055777D01*
X106265598Y-58072253D01*
X106245893Y-58086867D01*
X106224849Y-58099480D01*
X106202671Y-58109970D01*
X106179571Y-58118235D01*
X106155773Y-58124196D01*
X106131504Y-58127796D01*
X106107000Y-58129000D01*
X105432000Y-58129000D01*
X105407496Y-58127796D01*
X105383227Y-58124196D01*
X105359429Y-58118235D01*
X105336329Y-58109970D01*
X105314151Y-58099480D01*
X105293107Y-58086867D01*
X105273402Y-58072253D01*
X105255223Y-58055777D01*
X105238747Y-58037598D01*
X105224133Y-58017893D01*
X105211520Y-57996849D01*
X105201030Y-57974671D01*
X105192765Y-57951571D01*
X105186804Y-57927773D01*
X105183204Y-57903504D01*
X105182000Y-57879000D01*
X105182000Y-56929000D01*
X105183204Y-56904496D01*
X105186804Y-56880227D01*
X105192765Y-56856429D01*
X105201030Y-56833329D01*
X105211520Y-56811151D01*
X105224133Y-56790107D01*
X105238747Y-56770402D01*
X105255223Y-56752223D01*
X105273402Y-56735747D01*
X105293107Y-56721133D01*
X105314151Y-56708520D01*
X105336329Y-56698030D01*
X105359429Y-56689765D01*
X105383227Y-56683804D01*
X105407496Y-56680204D01*
X105432000Y-56679000D01*
X106107000Y-56679000D01*
X106131504Y-56680204D01*
G37*
G36*
X178934504Y-86326204D02*
G01*
X178958773Y-86329804D01*
X178982571Y-86335765D01*
X179005671Y-86344030D01*
X179027849Y-86354520D01*
X179048893Y-86367133D01*
X179068598Y-86381747D01*
X179086777Y-86398223D01*
X179103253Y-86416402D01*
X179117867Y-86436107D01*
X179130480Y-86457151D01*
X179140970Y-86479329D01*
X179149235Y-86502429D01*
X179155196Y-86526227D01*
X179158796Y-86550496D01*
X179160000Y-86575000D01*
X179160000Y-87250000D01*
X179158796Y-87274504D01*
X179155196Y-87298773D01*
X179149235Y-87322571D01*
X179140970Y-87345671D01*
X179130480Y-87367849D01*
X179117867Y-87388893D01*
X179103253Y-87408598D01*
X179086777Y-87426777D01*
X179068598Y-87443253D01*
X179048893Y-87457867D01*
X179027849Y-87470480D01*
X179005671Y-87480970D01*
X178982571Y-87489235D01*
X178958773Y-87495196D01*
X178934504Y-87498796D01*
X178910000Y-87500000D01*
X177960000Y-87500000D01*
X177935496Y-87498796D01*
X177911227Y-87495196D01*
X177887429Y-87489235D01*
X177864329Y-87480970D01*
X177842151Y-87470480D01*
X177821107Y-87457867D01*
X177801402Y-87443253D01*
X177783223Y-87426777D01*
X177766747Y-87408598D01*
X177752133Y-87388893D01*
X177739520Y-87367849D01*
X177729030Y-87345671D01*
X177720765Y-87322571D01*
X177714804Y-87298773D01*
X177711204Y-87274504D01*
X177710000Y-87250000D01*
X177710000Y-86575000D01*
X177711204Y-86550496D01*
X177714804Y-86526227D01*
X177720765Y-86502429D01*
X177729030Y-86479329D01*
X177739520Y-86457151D01*
X177752133Y-86436107D01*
X177766747Y-86416402D01*
X177783223Y-86398223D01*
X177801402Y-86381747D01*
X177821107Y-86367133D01*
X177842151Y-86354520D01*
X177864329Y-86344030D01*
X177887429Y-86335765D01*
X177911227Y-86329804D01*
X177935496Y-86326204D01*
X177960000Y-86325000D01*
X178910000Y-86325000D01*
X178934504Y-86326204D01*
G37*
G36*
X178934504Y-88401204D02*
G01*
X178958773Y-88404804D01*
X178982571Y-88410765D01*
X179005671Y-88419030D01*
X179027849Y-88429520D01*
X179048893Y-88442133D01*
X179068598Y-88456747D01*
X179086777Y-88473223D01*
X179103253Y-88491402D01*
X179117867Y-88511107D01*
X179130480Y-88532151D01*
X179140970Y-88554329D01*
X179149235Y-88577429D01*
X179155196Y-88601227D01*
X179158796Y-88625496D01*
X179160000Y-88650000D01*
X179160000Y-89325000D01*
X179158796Y-89349504D01*
X179155196Y-89373773D01*
X179149235Y-89397571D01*
X179140970Y-89420671D01*
X179130480Y-89442849D01*
X179117867Y-89463893D01*
X179103253Y-89483598D01*
X179086777Y-89501777D01*
X179068598Y-89518253D01*
X179048893Y-89532867D01*
X179027849Y-89545480D01*
X179005671Y-89555970D01*
X178982571Y-89564235D01*
X178958773Y-89570196D01*
X178934504Y-89573796D01*
X178910000Y-89575000D01*
X177960000Y-89575000D01*
X177935496Y-89573796D01*
X177911227Y-89570196D01*
X177887429Y-89564235D01*
X177864329Y-89555970D01*
X177842151Y-89545480D01*
X177821107Y-89532867D01*
X177801402Y-89518253D01*
X177783223Y-89501777D01*
X177766747Y-89483598D01*
X177752133Y-89463893D01*
X177739520Y-89442849D01*
X177729030Y-89420671D01*
X177720765Y-89397571D01*
X177714804Y-89373773D01*
X177711204Y-89349504D01*
X177710000Y-89325000D01*
X177710000Y-88650000D01*
X177711204Y-88625496D01*
X177714804Y-88601227D01*
X177720765Y-88577429D01*
X177729030Y-88554329D01*
X177739520Y-88532151D01*
X177752133Y-88511107D01*
X177766747Y-88491402D01*
X177783223Y-88473223D01*
X177801402Y-88456747D01*
X177821107Y-88442133D01*
X177842151Y-88429520D01*
X177864329Y-88419030D01*
X177887429Y-88410765D01*
X177911227Y-88404804D01*
X177935496Y-88401204D01*
X177960000Y-88400000D01*
X178910000Y-88400000D01*
X178934504Y-88401204D01*
G37*
D14*
X206690600Y-107696000D03*
D15*
X204190600Y-107696000D03*
M02*
