G04 #@! TF.GenerationSoftware,KiCad,Pcbnew,(5.1.5-0-10_14)*
G04 #@! TF.CreationDate,2021-05-20T16:22:00+02:00*
G04 #@! TF.ProjectId,GottaGoFastZ2,476f7474-6147-46f4-9661-73745a322e6b,rev?*
G04 #@! TF.SameCoordinates,Original*
G04 #@! TF.FileFunction,Legend,Top*
G04 #@! TF.FilePolarity,Positive*
%FSLAX46Y46*%
G04 Gerber Fmt 4.6, Leading zero omitted, Abs format (unit mm)*
G04 Created by KiCad (PCBNEW (5.1.5-0-10_14)) date 2021-05-20 16:22:00*
%MOMM*%
%LPD*%
G04 APERTURE LIST*
%ADD10C,0.150000*%
%ADD11C,0.120000*%
G04 APERTURE END LIST*
D10*
X185432276Y-58441152D02*
X185337038Y-58393533D01*
X185289419Y-58345914D01*
X185241800Y-58250676D01*
X185241800Y-58203057D01*
X185289419Y-58107819D01*
X185337038Y-58060200D01*
X185432276Y-58012580D01*
X185622752Y-58012580D01*
X185717990Y-58060200D01*
X185765609Y-58107819D01*
X185813228Y-58203057D01*
X185813228Y-58250676D01*
X185765609Y-58345914D01*
X185717990Y-58393533D01*
X185622752Y-58441152D01*
X185432276Y-58441152D01*
X185337038Y-58488771D01*
X185289419Y-58536390D01*
X185241800Y-58631628D01*
X185241800Y-58822104D01*
X185289419Y-58917342D01*
X185337038Y-58964961D01*
X185432276Y-59012580D01*
X185622752Y-59012580D01*
X185717990Y-58964961D01*
X185765609Y-58917342D01*
X185813228Y-58822104D01*
X185813228Y-58631628D01*
X185765609Y-58536390D01*
X185717990Y-58488771D01*
X185622752Y-58441152D01*
X186241800Y-59012580D02*
X186241800Y-58012580D01*
X186575133Y-58726866D01*
X186908466Y-58012580D01*
X186908466Y-59012580D01*
X187717990Y-58488771D02*
X187860847Y-58536390D01*
X187908466Y-58584009D01*
X187956085Y-58679247D01*
X187956085Y-58822104D01*
X187908466Y-58917342D01*
X187860847Y-58964961D01*
X187765609Y-59012580D01*
X187384657Y-59012580D01*
X187384657Y-58012580D01*
X187717990Y-58012580D01*
X187813228Y-58060200D01*
X187860847Y-58107819D01*
X187908466Y-58203057D01*
X187908466Y-58298295D01*
X187860847Y-58393533D01*
X187813228Y-58441152D01*
X187717990Y-58488771D01*
X187384657Y-58488771D01*
X189098942Y-58726866D02*
X189575133Y-58726866D01*
X189003704Y-59012580D02*
X189337038Y-58012580D01*
X189670371Y-59012580D01*
X190432276Y-58345914D02*
X190432276Y-59012580D01*
X190003704Y-58345914D02*
X190003704Y-58869723D01*
X190051323Y-58964961D01*
X190146561Y-59012580D01*
X190289419Y-59012580D01*
X190384657Y-58964961D01*
X190432276Y-58917342D01*
X190765609Y-58345914D02*
X191146561Y-58345914D01*
X190908466Y-58012580D02*
X190908466Y-58869723D01*
X190956085Y-58964961D01*
X191051323Y-59012580D01*
X191146561Y-59012580D01*
X191622752Y-59012580D02*
X191527514Y-58964961D01*
X191479895Y-58917342D01*
X191432276Y-58822104D01*
X191432276Y-58536390D01*
X191479895Y-58441152D01*
X191527514Y-58393533D01*
X191622752Y-58345914D01*
X191765609Y-58345914D01*
X191860847Y-58393533D01*
X191908466Y-58441152D01*
X191956085Y-58536390D01*
X191956085Y-58822104D01*
X191908466Y-58917342D01*
X191860847Y-58964961D01*
X191765609Y-59012580D01*
X191622752Y-59012580D01*
X192813228Y-58964961D02*
X192717990Y-59012580D01*
X192527514Y-59012580D01*
X192432276Y-58964961D01*
X192384657Y-58917342D01*
X192337038Y-58822104D01*
X192337038Y-58536390D01*
X192384657Y-58441152D01*
X192432276Y-58393533D01*
X192527514Y-58345914D01*
X192717990Y-58345914D01*
X192813228Y-58393533D01*
X193384657Y-59012580D02*
X193289419Y-58964961D01*
X193241800Y-58917342D01*
X193194180Y-58822104D01*
X193194180Y-58536390D01*
X193241800Y-58441152D01*
X193289419Y-58393533D01*
X193384657Y-58345914D01*
X193527514Y-58345914D01*
X193622752Y-58393533D01*
X193670371Y-58441152D01*
X193717990Y-58536390D01*
X193717990Y-58822104D01*
X193670371Y-58917342D01*
X193622752Y-58964961D01*
X193527514Y-59012580D01*
X193384657Y-59012580D01*
X194146561Y-58345914D02*
X194146561Y-59012580D01*
X194146561Y-58441152D02*
X194194180Y-58393533D01*
X194289419Y-58345914D01*
X194432276Y-58345914D01*
X194527514Y-58393533D01*
X194575133Y-58488771D01*
X194575133Y-59012580D01*
X194908466Y-58345914D02*
X195289419Y-58345914D01*
X195051323Y-59012580D02*
X195051323Y-58155438D01*
X195098942Y-58060200D01*
X195194180Y-58012580D01*
X195289419Y-58012580D01*
X195622752Y-59012580D02*
X195622752Y-58345914D01*
X195622752Y-58012580D02*
X195575133Y-58060200D01*
X195622752Y-58107819D01*
X195670371Y-58060200D01*
X195622752Y-58012580D01*
X195622752Y-58107819D01*
X196527514Y-58345914D02*
X196527514Y-59155438D01*
X196479895Y-59250676D01*
X196432276Y-59298295D01*
X196337038Y-59345914D01*
X196194180Y-59345914D01*
X196098942Y-59298295D01*
X196527514Y-58964961D02*
X196432276Y-59012580D01*
X196241800Y-59012580D01*
X196146561Y-58964961D01*
X196098942Y-58917342D01*
X196051323Y-58822104D01*
X196051323Y-58536390D01*
X196098942Y-58441152D01*
X196146561Y-58393533D01*
X196241800Y-58345914D01*
X196432276Y-58345914D01*
X196527514Y-58393533D01*
X198098942Y-58488771D02*
X197765609Y-58488771D01*
X197765609Y-59012580D02*
X197765609Y-58012580D01*
X198241800Y-58012580D01*
X199051323Y-59012580D02*
X199051323Y-58488771D01*
X199003704Y-58393533D01*
X198908466Y-58345914D01*
X198717990Y-58345914D01*
X198622752Y-58393533D01*
X199051323Y-58964961D02*
X198956085Y-59012580D01*
X198717990Y-59012580D01*
X198622752Y-58964961D01*
X198575133Y-58869723D01*
X198575133Y-58774485D01*
X198622752Y-58679247D01*
X198717990Y-58631628D01*
X198956085Y-58631628D01*
X199051323Y-58584009D01*
X199479895Y-58964961D02*
X199575133Y-59012580D01*
X199765609Y-59012580D01*
X199860847Y-58964961D01*
X199908466Y-58869723D01*
X199908466Y-58822104D01*
X199860847Y-58726866D01*
X199765609Y-58679247D01*
X199622752Y-58679247D01*
X199527514Y-58631628D01*
X199479895Y-58536390D01*
X199479895Y-58488771D01*
X199527514Y-58393533D01*
X199622752Y-58345914D01*
X199765609Y-58345914D01*
X199860847Y-58393533D01*
X200194180Y-58345914D02*
X200575133Y-58345914D01*
X200337038Y-58012580D02*
X200337038Y-58869723D01*
X200384657Y-58964961D01*
X200479895Y-59012580D01*
X200575133Y-59012580D01*
X202241800Y-59012580D02*
X201908466Y-58536390D01*
X201670371Y-59012580D02*
X201670371Y-58012580D01*
X202051323Y-58012580D01*
X202146561Y-58060200D01*
X202194180Y-58107819D01*
X202241800Y-58203057D01*
X202241800Y-58345914D01*
X202194180Y-58441152D01*
X202146561Y-58488771D01*
X202051323Y-58536390D01*
X201670371Y-58536390D01*
X202622752Y-58726866D02*
X203098942Y-58726866D01*
X202527514Y-59012580D02*
X202860847Y-58012580D01*
X203194180Y-59012580D01*
X203527514Y-59012580D02*
X203527514Y-58012580D01*
X203860847Y-58726866D01*
X204194180Y-58012580D01*
X204194180Y-59012580D01*
X181789419Y-60138771D02*
X181932276Y-60186390D01*
X181979895Y-60234009D01*
X182027514Y-60329247D01*
X182027514Y-60472104D01*
X181979895Y-60567342D01*
X181932276Y-60614961D01*
X181837038Y-60662580D01*
X181456085Y-60662580D01*
X181456085Y-59662580D01*
X181789419Y-59662580D01*
X181884657Y-59710200D01*
X181932276Y-59757819D01*
X181979895Y-59853057D01*
X181979895Y-59948295D01*
X181932276Y-60043533D01*
X181884657Y-60091152D01*
X181789419Y-60138771D01*
X181456085Y-60138771D01*
X182360847Y-59995914D02*
X182598942Y-60662580D01*
X182837038Y-59995914D02*
X182598942Y-60662580D01*
X182503704Y-60900676D01*
X182456085Y-60948295D01*
X182360847Y-60995914D01*
X183979895Y-60662580D02*
X183979895Y-59662580D01*
X184313228Y-60376866D01*
X184646561Y-59662580D01*
X184646561Y-60662580D01*
X185551323Y-60662580D02*
X185551323Y-60138771D01*
X185503704Y-60043533D01*
X185408466Y-59995914D01*
X185217990Y-59995914D01*
X185122752Y-60043533D01*
X185551323Y-60614961D02*
X185456085Y-60662580D01*
X185217990Y-60662580D01*
X185122752Y-60614961D01*
X185075133Y-60519723D01*
X185075133Y-60424485D01*
X185122752Y-60329247D01*
X185217990Y-60281628D01*
X185456085Y-60281628D01*
X185551323Y-60234009D01*
X185884657Y-59995914D02*
X186265609Y-59995914D01*
X186027514Y-59662580D02*
X186027514Y-60519723D01*
X186075133Y-60614961D01*
X186170371Y-60662580D01*
X186265609Y-60662580D01*
X186456085Y-59995914D02*
X186837038Y-59995914D01*
X186598942Y-59662580D02*
X186598942Y-60519723D01*
X186646561Y-60614961D01*
X186741800Y-60662580D01*
X186837038Y-60662580D01*
X187932276Y-60662580D02*
X187932276Y-59662580D01*
X187932276Y-60138771D02*
X188503704Y-60138771D01*
X188503704Y-60662580D02*
X188503704Y-59662580D01*
X189408466Y-60662580D02*
X189408466Y-60138771D01*
X189360847Y-60043533D01*
X189265609Y-59995914D01*
X189075133Y-59995914D01*
X188979895Y-60043533D01*
X189408466Y-60614961D02*
X189313228Y-60662580D01*
X189075133Y-60662580D01*
X188979895Y-60614961D01*
X188932276Y-60519723D01*
X188932276Y-60424485D01*
X188979895Y-60329247D01*
X189075133Y-60281628D01*
X189313228Y-60281628D01*
X189408466Y-60234009D01*
X189884657Y-60662580D02*
X189884657Y-59995914D01*
X189884657Y-60186390D02*
X189932276Y-60091152D01*
X189979895Y-60043533D01*
X190075133Y-59995914D01*
X190170371Y-59995914D01*
X190646561Y-60662580D02*
X190551323Y-60614961D01*
X190503704Y-60519723D01*
X190503704Y-59662580D01*
X191456085Y-59995914D02*
X191456085Y-60662580D01*
X191027514Y-59995914D02*
X191027514Y-60519723D01*
X191075133Y-60614961D01*
X191170371Y-60662580D01*
X191313228Y-60662580D01*
X191408466Y-60614961D01*
X191456085Y-60567342D01*
X191932276Y-60662580D02*
X191932276Y-59995914D01*
X191932276Y-60091152D02*
X191979895Y-60043533D01*
X192075133Y-59995914D01*
X192217990Y-59995914D01*
X192313228Y-60043533D01*
X192360847Y-60138771D01*
X192360847Y-60662580D01*
X192360847Y-60138771D02*
X192408466Y-60043533D01*
X192503704Y-59995914D01*
X192646561Y-59995914D01*
X192741800Y-60043533D01*
X192789419Y-60138771D01*
X192789419Y-60662580D01*
X194027514Y-60281628D02*
X194789419Y-60281628D01*
X196551323Y-59710200D02*
X196456085Y-59662580D01*
X196313228Y-59662580D01*
X196170371Y-59710200D01*
X196075133Y-59805438D01*
X196027514Y-59900676D01*
X195979895Y-60091152D01*
X195979895Y-60234009D01*
X196027514Y-60424485D01*
X196075133Y-60519723D01*
X196170371Y-60614961D01*
X196313228Y-60662580D01*
X196408466Y-60662580D01*
X196551323Y-60614961D01*
X196598942Y-60567342D01*
X196598942Y-60234009D01*
X196408466Y-60234009D01*
X197027514Y-60662580D02*
X197027514Y-59995914D01*
X197027514Y-59662580D02*
X196979895Y-59710200D01*
X197027514Y-59757819D01*
X197075133Y-59710200D01*
X197027514Y-59662580D01*
X197027514Y-59757819D01*
X197360847Y-59995914D02*
X197741800Y-59995914D01*
X197503704Y-59662580D02*
X197503704Y-60519723D01*
X197551323Y-60614961D01*
X197646561Y-60662580D01*
X197741800Y-60662580D01*
X198075133Y-60662580D02*
X198075133Y-59662580D01*
X198503704Y-60662580D02*
X198503704Y-60138771D01*
X198456085Y-60043533D01*
X198360847Y-59995914D01*
X198217990Y-59995914D01*
X198122752Y-60043533D01*
X198075133Y-60091152D01*
X199408466Y-59995914D02*
X199408466Y-60662580D01*
X198979895Y-59995914D02*
X198979895Y-60519723D01*
X199027514Y-60614961D01*
X199122752Y-60662580D01*
X199265609Y-60662580D01*
X199360847Y-60614961D01*
X199408466Y-60567342D01*
X199884657Y-60662580D02*
X199884657Y-59662580D01*
X199884657Y-60043533D02*
X199979895Y-59995914D01*
X200170371Y-59995914D01*
X200265609Y-60043533D01*
X200313228Y-60091152D01*
X200360847Y-60186390D01*
X200360847Y-60472104D01*
X200313228Y-60567342D01*
X200265609Y-60614961D01*
X200170371Y-60662580D01*
X199979895Y-60662580D01*
X199884657Y-60614961D01*
X200789419Y-60567342D02*
X200837038Y-60614961D01*
X200789419Y-60662580D01*
X200741800Y-60614961D01*
X200789419Y-60567342D01*
X200789419Y-60662580D01*
X201694180Y-60614961D02*
X201598942Y-60662580D01*
X201408466Y-60662580D01*
X201313228Y-60614961D01*
X201265609Y-60567342D01*
X201217990Y-60472104D01*
X201217990Y-60186390D01*
X201265609Y-60091152D01*
X201313228Y-60043533D01*
X201408466Y-59995914D01*
X201598942Y-59995914D01*
X201694180Y-60043533D01*
X202265609Y-60662580D02*
X202170371Y-60614961D01*
X202122752Y-60567342D01*
X202075133Y-60472104D01*
X202075133Y-60186390D01*
X202122752Y-60091152D01*
X202170371Y-60043533D01*
X202265609Y-59995914D01*
X202408466Y-59995914D01*
X202503704Y-60043533D01*
X202551323Y-60091152D01*
X202598942Y-60186390D01*
X202598942Y-60472104D01*
X202551323Y-60567342D01*
X202503704Y-60614961D01*
X202408466Y-60662580D01*
X202265609Y-60662580D01*
X203027514Y-60662580D02*
X203027514Y-59995914D01*
X203027514Y-60091152D02*
X203075133Y-60043533D01*
X203170371Y-59995914D01*
X203313228Y-59995914D01*
X203408466Y-60043533D01*
X203456085Y-60138771D01*
X203456085Y-60662580D01*
X203456085Y-60138771D02*
X203503704Y-60043533D01*
X203598942Y-59995914D01*
X203741800Y-59995914D01*
X203837038Y-60043533D01*
X203884657Y-60138771D01*
X203884657Y-60662580D01*
X205075133Y-59614961D02*
X204217990Y-60900676D01*
X205884657Y-60662580D02*
X205408466Y-60662580D01*
X205408466Y-59662580D01*
X206217990Y-60662580D02*
X206217990Y-59662580D01*
X206551323Y-59662580D02*
X206884657Y-60662580D01*
X207217990Y-59662580D01*
X207503704Y-59757819D02*
X207551323Y-59710200D01*
X207646561Y-59662580D01*
X207884657Y-59662580D01*
X207979895Y-59710200D01*
X208027514Y-59757819D01*
X208075133Y-59853057D01*
X208075133Y-59948295D01*
X208027514Y-60091152D01*
X207456085Y-60662580D01*
X208075133Y-60662580D01*
X199569571Y-87572571D02*
X199569571Y-87001142D01*
X199855285Y-87286857D02*
X199283857Y-87286857D01*
X199105285Y-86715428D02*
X199105285Y-86251142D01*
X199391000Y-86501142D01*
X199391000Y-86394000D01*
X199426714Y-86322571D01*
X199462428Y-86286857D01*
X199533857Y-86251142D01*
X199712428Y-86251142D01*
X199783857Y-86286857D01*
X199819571Y-86322571D01*
X199855285Y-86394000D01*
X199855285Y-86608285D01*
X199819571Y-86679714D01*
X199783857Y-86715428D01*
X199783857Y-85929714D02*
X199819571Y-85894000D01*
X199855285Y-85929714D01*
X199819571Y-85965428D01*
X199783857Y-85929714D01*
X199855285Y-85929714D01*
X199105285Y-85644000D02*
X199105285Y-85179714D01*
X199391000Y-85429714D01*
X199391000Y-85322571D01*
X199426714Y-85251142D01*
X199462428Y-85215428D01*
X199533857Y-85179714D01*
X199712428Y-85179714D01*
X199783857Y-85215428D01*
X199819571Y-85251142D01*
X199855285Y-85322571D01*
X199855285Y-85536857D01*
X199819571Y-85608285D01*
X199783857Y-85644000D01*
X196601000Y-86965428D02*
X196565285Y-87036857D01*
X196565285Y-87144000D01*
X196601000Y-87251142D01*
X196672428Y-87322571D01*
X196743857Y-87358285D01*
X196886714Y-87394000D01*
X196993857Y-87394000D01*
X197136714Y-87358285D01*
X197208142Y-87322571D01*
X197279571Y-87251142D01*
X197315285Y-87144000D01*
X197315285Y-87072571D01*
X197279571Y-86965428D01*
X197243857Y-86929714D01*
X196993857Y-86929714D01*
X196993857Y-87072571D01*
X197315285Y-86608285D02*
X196565285Y-86608285D01*
X197315285Y-86179714D01*
X196565285Y-86179714D01*
X197315285Y-85822571D02*
X196565285Y-85822571D01*
X196565285Y-85644000D01*
X196601000Y-85536857D01*
X196672428Y-85465428D01*
X196743857Y-85429714D01*
X196886714Y-85394000D01*
X196993857Y-85394000D01*
X197136714Y-85429714D01*
X197208142Y-85465428D01*
X197279571Y-85536857D01*
X197315285Y-85644000D01*
X197315285Y-85822571D01*
X194025285Y-87358285D02*
X194025285Y-86929714D01*
X194775285Y-87144000D02*
X194025285Y-87144000D01*
X194703857Y-86251142D02*
X194739571Y-86286857D01*
X194775285Y-86394000D01*
X194775285Y-86465428D01*
X194739571Y-86572571D01*
X194668142Y-86644000D01*
X194596714Y-86679714D01*
X194453857Y-86715428D01*
X194346714Y-86715428D01*
X194203857Y-86679714D01*
X194132428Y-86644000D01*
X194061000Y-86572571D01*
X194025285Y-86465428D01*
X194025285Y-86394000D01*
X194061000Y-86286857D01*
X194096714Y-86251142D01*
X194775285Y-85929714D02*
X194025285Y-85929714D01*
X194775285Y-85501142D02*
X194346714Y-85822571D01*
X194025285Y-85501142D02*
X194453857Y-85929714D01*
X191485285Y-87376142D02*
X191485285Y-86947571D01*
X192235285Y-87161857D02*
X191485285Y-87161857D01*
X192235285Y-86697571D02*
X191485285Y-86697571D01*
X191485285Y-86519000D01*
X191521000Y-86411857D01*
X191592428Y-86340428D01*
X191663857Y-86304714D01*
X191806714Y-86269000D01*
X191913857Y-86269000D01*
X192056714Y-86304714D01*
X192128142Y-86340428D01*
X192199571Y-86411857D01*
X192235285Y-86519000D01*
X192235285Y-86697571D01*
X191485285Y-85804714D02*
X191485285Y-85661857D01*
X191521000Y-85590428D01*
X191592428Y-85519000D01*
X191735285Y-85483285D01*
X191985285Y-85483285D01*
X192128142Y-85519000D01*
X192199571Y-85590428D01*
X192235285Y-85661857D01*
X192235285Y-85804714D01*
X192199571Y-85876142D01*
X192128142Y-85947571D01*
X191985285Y-85983285D01*
X191735285Y-85983285D01*
X191592428Y-85947571D01*
X191521000Y-85876142D01*
X191485285Y-85804714D01*
X188945285Y-87161857D02*
X188945285Y-86733285D01*
X189695285Y-86947571D02*
X188945285Y-86947571D01*
X189695285Y-86483285D02*
X188945285Y-86483285D01*
X188945285Y-86304714D01*
X188981000Y-86197571D01*
X189052428Y-86126142D01*
X189123857Y-86090428D01*
X189266714Y-86054714D01*
X189373857Y-86054714D01*
X189516714Y-86090428D01*
X189588142Y-86126142D01*
X189659571Y-86197571D01*
X189695285Y-86304714D01*
X189695285Y-86483285D01*
X189695285Y-85733285D02*
X188945285Y-85733285D01*
X186405285Y-87394000D02*
X186405285Y-86965428D01*
X187155285Y-87179714D02*
X186405285Y-87179714D01*
X187155285Y-86715428D02*
X186405285Y-86715428D01*
X186941000Y-86465428D01*
X186405285Y-86215428D01*
X187155285Y-86215428D01*
X187119571Y-85894000D02*
X187155285Y-85786857D01*
X187155285Y-85608285D01*
X187119571Y-85536857D01*
X187083857Y-85501142D01*
X187012428Y-85465428D01*
X186941000Y-85465428D01*
X186869571Y-85501142D01*
X186833857Y-85536857D01*
X186798142Y-85608285D01*
X186762428Y-85751142D01*
X186726714Y-85822571D01*
X186691000Y-85858285D01*
X186619571Y-85894000D01*
X186548142Y-85894000D01*
X186476714Y-85858285D01*
X186441000Y-85822571D01*
X186405285Y-85751142D01*
X186405285Y-85572571D01*
X186441000Y-85465428D01*
X85487619Y-107521428D02*
X83963809Y-108092857D01*
X85487619Y-108664285D01*
X87963809Y-107521428D02*
X86440000Y-108092857D01*
X87963809Y-108664285D01*
X91106666Y-107807142D02*
X90440000Y-107807142D01*
X90440000Y-108854761D02*
X90440000Y-106854761D01*
X91392380Y-106854761D01*
X93297142Y-108854761D02*
X92630476Y-107902380D01*
X92154285Y-108854761D02*
X92154285Y-106854761D01*
X92916190Y-106854761D01*
X93106666Y-106950000D01*
X93201904Y-107045238D01*
X93297142Y-107235714D01*
X93297142Y-107521428D01*
X93201904Y-107711904D01*
X93106666Y-107807142D01*
X92916190Y-107902380D01*
X92154285Y-107902380D01*
X94535238Y-106854761D02*
X94916190Y-106854761D01*
X95106666Y-106950000D01*
X95297142Y-107140476D01*
X95392380Y-107521428D01*
X95392380Y-108188095D01*
X95297142Y-108569047D01*
X95106666Y-108759523D01*
X94916190Y-108854761D01*
X94535238Y-108854761D01*
X94344761Y-108759523D01*
X94154285Y-108569047D01*
X94059047Y-108188095D01*
X94059047Y-107521428D01*
X94154285Y-107140476D01*
X94344761Y-106950000D01*
X94535238Y-106854761D01*
X96249523Y-108854761D02*
X96249523Y-106854761D01*
X97392380Y-108854761D01*
X97392380Y-106854761D01*
X98059047Y-106854761D02*
X99201904Y-106854761D01*
X98630476Y-108854761D02*
X98630476Y-106854761D01*
D11*
X205314600Y-95206900D02*
X204054600Y-95206900D01*
X198494600Y-95206900D02*
X199754600Y-95206900D01*
X205314600Y-98966900D02*
X205314600Y-95206900D01*
X198494600Y-101216900D02*
X198494600Y-95206900D01*
X180594000Y-87122000D02*
G75*
G03X180594000Y-87122000I-127000J0D01*
G01*
X180908000Y-89029000D02*
X180908000Y-87739000D01*
X181608000Y-89029000D02*
X180908000Y-89029000D01*
X181608000Y-89729000D02*
X181608000Y-89029000D01*
X181608000Y-103249000D02*
X180908000Y-103249000D01*
X181608000Y-102549000D02*
X181608000Y-103249000D01*
X167388000Y-89029000D02*
X168088000Y-89029000D01*
X167388000Y-89729000D02*
X167388000Y-89029000D01*
X167388000Y-103249000D02*
X168088000Y-103249000D01*
X167388000Y-102549000D02*
X167388000Y-103249000D01*
X181472000Y-110106100D02*
X183272000Y-110106100D01*
X183272000Y-106886100D02*
X180822000Y-106886100D01*
X180291490Y-107543600D02*
G75*
G03X180291490Y-107543600I-141990J0D01*
G01*
X205041048Y-103907000D02*
X206463552Y-103907000D01*
X205041048Y-102087000D02*
X206463552Y-102087000D01*
X197760000Y-94831248D02*
X197760000Y-96253752D01*
X195940000Y-94831248D02*
X195940000Y-96253752D01*
X190490800Y-82610000D02*
X190490800Y-81280000D01*
X191820800Y-82610000D02*
X190490800Y-82610000D01*
X193090800Y-82610000D02*
X193090800Y-79950000D01*
X193090800Y-79950000D02*
X195690800Y-79950000D01*
X193090800Y-82610000D02*
X195690800Y-82610000D01*
X195690800Y-82610000D02*
X195690800Y-79950000D01*
X131318000Y-93980000D02*
G75*
G03X131318000Y-93980000I-127000J0D01*
G01*
X131751000Y-96470000D02*
X131751000Y-94655000D01*
X131986000Y-96470000D02*
X131751000Y-96470000D01*
X131986000Y-100330000D02*
X131986000Y-96470000D01*
X131986000Y-104190000D02*
X131751000Y-104190000D01*
X131986000Y-100330000D02*
X131986000Y-104190000D01*
X118966000Y-96470000D02*
X119201000Y-96470000D01*
X118966000Y-100330000D02*
X118966000Y-96470000D01*
X118966000Y-104190000D02*
X119201000Y-104190000D01*
X118966000Y-100330000D02*
X118966000Y-104190000D01*
X114173000Y-93980000D02*
G75*
G03X114173000Y-93980000I-127000J0D01*
G01*
X114606000Y-96470000D02*
X114606000Y-94655000D01*
X114841000Y-96470000D02*
X114606000Y-96470000D01*
X114841000Y-100330000D02*
X114841000Y-96470000D01*
X114841000Y-104190000D02*
X114606000Y-104190000D01*
X114841000Y-100330000D02*
X114841000Y-104190000D01*
X101821000Y-96470000D02*
X102056000Y-96470000D01*
X101821000Y-100330000D02*
X101821000Y-96470000D01*
X101821000Y-104190000D02*
X102056000Y-104190000D01*
X101821000Y-100330000D02*
X101821000Y-104190000D01*
D10*
X133731000Y-56642000D02*
X133731000Y-82296000D01*
X125857000Y-82296000D02*
X125857000Y-56642000D01*
X127381000Y-57404000D02*
X126873000Y-57912000D01*
X126873000Y-57912000D02*
X126365000Y-57404000D01*
X126365000Y-57404000D02*
X126873000Y-56896000D01*
X126873000Y-56896000D02*
X127381000Y-57404000D01*
X125857000Y-84074000D02*
X133731000Y-84074000D01*
X125857000Y-82296000D02*
X125857000Y-82296000D01*
X125857000Y-82296000D02*
X125857000Y-84074000D01*
X133731000Y-82296000D02*
X133731000Y-84074000D01*
X125857000Y-56261000D02*
X133731000Y-56261000D01*
X133731000Y-56642000D02*
X133731000Y-56261000D01*
X125857000Y-56642000D02*
X125857000Y-56261000D01*
X115951000Y-56642000D02*
X115951000Y-82296000D01*
X108077000Y-82296000D02*
X108077000Y-56642000D01*
X109601000Y-57404000D02*
X109093000Y-57912000D01*
X109093000Y-57912000D02*
X108585000Y-57404000D01*
X108585000Y-57404000D02*
X109093000Y-56896000D01*
X109093000Y-56896000D02*
X109601000Y-57404000D01*
X108077000Y-84074000D02*
X115951000Y-84074000D01*
X108077000Y-82296000D02*
X108077000Y-82296000D01*
X108077000Y-82296000D02*
X108077000Y-84074000D01*
X115951000Y-82296000D02*
X115951000Y-84074000D01*
X108077000Y-56261000D02*
X115951000Y-56261000D01*
X115951000Y-56642000D02*
X115951000Y-56261000D01*
X108077000Y-56642000D02*
X108077000Y-56261000D01*
X169291000Y-56642000D02*
X169291000Y-82296000D01*
X161417000Y-82296000D02*
X161417000Y-56642000D01*
X162941000Y-57404000D02*
X162433000Y-57912000D01*
X162433000Y-57912000D02*
X161925000Y-57404000D01*
X161925000Y-57404000D02*
X162433000Y-56896000D01*
X162433000Y-56896000D02*
X162941000Y-57404000D01*
X161417000Y-84074000D02*
X169291000Y-84074000D01*
X161417000Y-82296000D02*
X161417000Y-82296000D01*
X161417000Y-82296000D02*
X161417000Y-84074000D01*
X169291000Y-82296000D02*
X169291000Y-84074000D01*
X161417000Y-56261000D02*
X169291000Y-56261000D01*
X169291000Y-56642000D02*
X169291000Y-56261000D01*
X161417000Y-56642000D02*
X161417000Y-56261000D01*
X151511000Y-56642000D02*
X151511000Y-82296000D01*
X143637000Y-82296000D02*
X143637000Y-56642000D01*
X145161000Y-57404000D02*
X144653000Y-57912000D01*
X144653000Y-57912000D02*
X144145000Y-57404000D01*
X144145000Y-57404000D02*
X144653000Y-56896000D01*
X144653000Y-56896000D02*
X145161000Y-57404000D01*
X143637000Y-84074000D02*
X151511000Y-84074000D01*
X143637000Y-82296000D02*
X143637000Y-82296000D01*
X143637000Y-82296000D02*
X143637000Y-84074000D01*
X151511000Y-82296000D02*
X151511000Y-84074000D01*
X143637000Y-56261000D02*
X151511000Y-56261000D01*
X151511000Y-56642000D02*
X151511000Y-56261000D01*
X143637000Y-56642000D02*
X143637000Y-56261000D01*
D11*
X200770800Y-90814200D02*
X200770800Y-88154200D01*
X188010800Y-90814200D02*
X200770800Y-90814200D01*
X188010800Y-88154200D02*
X200770800Y-88154200D01*
X188010800Y-90814200D02*
X188010800Y-88154200D01*
X186740800Y-90814200D02*
X185410800Y-90814200D01*
X185410800Y-90814200D02*
X185410800Y-89484200D01*
X208060600Y-107696000D02*
G75*
G03X208060600Y-107696000I-2620000J0D01*
G01*
X205440600Y-105116000D02*
X205440600Y-110276000D01*
X205480600Y-105116000D02*
X205480600Y-110276000D01*
X205520600Y-105117000D02*
X205520600Y-110275000D01*
X205560600Y-105118000D02*
X205560600Y-110274000D01*
X205600600Y-105120000D02*
X205600600Y-110272000D01*
X205640600Y-105123000D02*
X205640600Y-110269000D01*
X205680600Y-105127000D02*
X205680600Y-106656000D01*
X205680600Y-108736000D02*
X205680600Y-110265000D01*
X205720600Y-105131000D02*
X205720600Y-106656000D01*
X205720600Y-108736000D02*
X205720600Y-110261000D01*
X205760600Y-105135000D02*
X205760600Y-106656000D01*
X205760600Y-108736000D02*
X205760600Y-110257000D01*
X205800600Y-105140000D02*
X205800600Y-106656000D01*
X205800600Y-108736000D02*
X205800600Y-110252000D01*
X205840600Y-105146000D02*
X205840600Y-106656000D01*
X205840600Y-108736000D02*
X205840600Y-110246000D01*
X205880600Y-105153000D02*
X205880600Y-106656000D01*
X205880600Y-108736000D02*
X205880600Y-110239000D01*
X205920600Y-105160000D02*
X205920600Y-106656000D01*
X205920600Y-108736000D02*
X205920600Y-110232000D01*
X205960600Y-105168000D02*
X205960600Y-106656000D01*
X205960600Y-108736000D02*
X205960600Y-110224000D01*
X206000600Y-105176000D02*
X206000600Y-106656000D01*
X206000600Y-108736000D02*
X206000600Y-110216000D01*
X206040600Y-105185000D02*
X206040600Y-106656000D01*
X206040600Y-108736000D02*
X206040600Y-110207000D01*
X206080600Y-105195000D02*
X206080600Y-106656000D01*
X206080600Y-108736000D02*
X206080600Y-110197000D01*
X206120600Y-105205000D02*
X206120600Y-106656000D01*
X206120600Y-108736000D02*
X206120600Y-110187000D01*
X206161600Y-105216000D02*
X206161600Y-106656000D01*
X206161600Y-108736000D02*
X206161600Y-110176000D01*
X206201600Y-105228000D02*
X206201600Y-106656000D01*
X206201600Y-108736000D02*
X206201600Y-110164000D01*
X206241600Y-105241000D02*
X206241600Y-106656000D01*
X206241600Y-108736000D02*
X206241600Y-110151000D01*
X206281600Y-105254000D02*
X206281600Y-106656000D01*
X206281600Y-108736000D02*
X206281600Y-110138000D01*
X206321600Y-105268000D02*
X206321600Y-106656000D01*
X206321600Y-108736000D02*
X206321600Y-110124000D01*
X206361600Y-105282000D02*
X206361600Y-106656000D01*
X206361600Y-108736000D02*
X206361600Y-110110000D01*
X206401600Y-105298000D02*
X206401600Y-106656000D01*
X206401600Y-108736000D02*
X206401600Y-110094000D01*
X206441600Y-105314000D02*
X206441600Y-106656000D01*
X206441600Y-108736000D02*
X206441600Y-110078000D01*
X206481600Y-105331000D02*
X206481600Y-106656000D01*
X206481600Y-108736000D02*
X206481600Y-110061000D01*
X206521600Y-105348000D02*
X206521600Y-106656000D01*
X206521600Y-108736000D02*
X206521600Y-110044000D01*
X206561600Y-105367000D02*
X206561600Y-106656000D01*
X206561600Y-108736000D02*
X206561600Y-110025000D01*
X206601600Y-105386000D02*
X206601600Y-106656000D01*
X206601600Y-108736000D02*
X206601600Y-110006000D01*
X206641600Y-105406000D02*
X206641600Y-106656000D01*
X206641600Y-108736000D02*
X206641600Y-109986000D01*
X206681600Y-105428000D02*
X206681600Y-106656000D01*
X206681600Y-108736000D02*
X206681600Y-109964000D01*
X206721600Y-105449000D02*
X206721600Y-106656000D01*
X206721600Y-108736000D02*
X206721600Y-109943000D01*
X206761600Y-105472000D02*
X206761600Y-106656000D01*
X206761600Y-108736000D02*
X206761600Y-109920000D01*
X206801600Y-105496000D02*
X206801600Y-106656000D01*
X206801600Y-108736000D02*
X206801600Y-109896000D01*
X206841600Y-105521000D02*
X206841600Y-106656000D01*
X206841600Y-108736000D02*
X206841600Y-109871000D01*
X206881600Y-105547000D02*
X206881600Y-106656000D01*
X206881600Y-108736000D02*
X206881600Y-109845000D01*
X206921600Y-105574000D02*
X206921600Y-106656000D01*
X206921600Y-108736000D02*
X206921600Y-109818000D01*
X206961600Y-105601000D02*
X206961600Y-106656000D01*
X206961600Y-108736000D02*
X206961600Y-109791000D01*
X207001600Y-105631000D02*
X207001600Y-106656000D01*
X207001600Y-108736000D02*
X207001600Y-109761000D01*
X207041600Y-105661000D02*
X207041600Y-106656000D01*
X207041600Y-108736000D02*
X207041600Y-109731000D01*
X207081600Y-105692000D02*
X207081600Y-106656000D01*
X207081600Y-108736000D02*
X207081600Y-109700000D01*
X207121600Y-105725000D02*
X207121600Y-106656000D01*
X207121600Y-108736000D02*
X207121600Y-109667000D01*
X207161600Y-105759000D02*
X207161600Y-106656000D01*
X207161600Y-108736000D02*
X207161600Y-109633000D01*
X207201600Y-105795000D02*
X207201600Y-106656000D01*
X207201600Y-108736000D02*
X207201600Y-109597000D01*
X207241600Y-105832000D02*
X207241600Y-106656000D01*
X207241600Y-108736000D02*
X207241600Y-109560000D01*
X207281600Y-105870000D02*
X207281600Y-106656000D01*
X207281600Y-108736000D02*
X207281600Y-109522000D01*
X207321600Y-105911000D02*
X207321600Y-106656000D01*
X207321600Y-108736000D02*
X207321600Y-109481000D01*
X207361600Y-105953000D02*
X207361600Y-106656000D01*
X207361600Y-108736000D02*
X207361600Y-109439000D01*
X207401600Y-105997000D02*
X207401600Y-106656000D01*
X207401600Y-108736000D02*
X207401600Y-109395000D01*
X207441600Y-106043000D02*
X207441600Y-106656000D01*
X207441600Y-108736000D02*
X207441600Y-109349000D01*
X207481600Y-106091000D02*
X207481600Y-106656000D01*
X207481600Y-108736000D02*
X207481600Y-109301000D01*
X207521600Y-106142000D02*
X207521600Y-106656000D01*
X207521600Y-108736000D02*
X207521600Y-109250000D01*
X207561600Y-106196000D02*
X207561600Y-106656000D01*
X207561600Y-108736000D02*
X207561600Y-109196000D01*
X207601600Y-106253000D02*
X207601600Y-106656000D01*
X207601600Y-108736000D02*
X207601600Y-109139000D01*
X207641600Y-106313000D02*
X207641600Y-106656000D01*
X207641600Y-108736000D02*
X207641600Y-109079000D01*
X207681600Y-106377000D02*
X207681600Y-106656000D01*
X207681600Y-108736000D02*
X207681600Y-109015000D01*
X207721600Y-106445000D02*
X207721600Y-106656000D01*
X207721600Y-108736000D02*
X207721600Y-108947000D01*
X207761600Y-106518000D02*
X207761600Y-108874000D01*
X207801600Y-106598000D02*
X207801600Y-108794000D01*
X207841600Y-106685000D02*
X207841600Y-108707000D01*
X207881600Y-106781000D02*
X207881600Y-108611000D01*
X207921600Y-106891000D02*
X207921600Y-108501000D01*
X207961600Y-107019000D02*
X207961600Y-108373000D01*
X208001600Y-107178000D02*
X208001600Y-108214000D01*
X208041600Y-107412000D02*
X208041600Y-107980000D01*
X202635825Y-106221000D02*
X203135825Y-106221000D01*
X202885825Y-105971000D02*
X202885825Y-106471000D01*
D10*
X205928980Y-97878804D02*
X206738504Y-97878804D01*
X206833742Y-97831185D01*
X206881361Y-97783566D01*
X206928980Y-97688328D01*
X206928980Y-97497852D01*
X206881361Y-97402614D01*
X206833742Y-97354995D01*
X206738504Y-97307376D01*
X205928980Y-97307376D01*
X206928980Y-96307376D02*
X206928980Y-96878804D01*
X206928980Y-96593090D02*
X205928980Y-96593090D01*
X206071838Y-96688328D01*
X206167076Y-96783566D01*
X206214695Y-96878804D01*
X183300380Y-96900904D02*
X184109904Y-96900904D01*
X184205142Y-96853285D01*
X184252761Y-96805666D01*
X184300380Y-96710428D01*
X184300380Y-96519952D01*
X184252761Y-96424714D01*
X184205142Y-96377095D01*
X184109904Y-96329476D01*
X183300380Y-96329476D01*
X183300380Y-95377095D02*
X183300380Y-95853285D01*
X183776571Y-95900904D01*
X183728952Y-95853285D01*
X183681333Y-95758047D01*
X183681333Y-95519952D01*
X183728952Y-95424714D01*
X183776571Y-95377095D01*
X183871809Y-95329476D01*
X184109904Y-95329476D01*
X184205142Y-95377095D01*
X184252761Y-95424714D01*
X184300380Y-95519952D01*
X184300380Y-95758047D01*
X184252761Y-95853285D01*
X184205142Y-95900904D01*
X168053571Y-95972380D02*
X168720238Y-96972380D01*
X168720238Y-95972380D02*
X168053571Y-96972380D01*
X169672619Y-96877142D02*
X169625000Y-96924761D01*
X169482142Y-96972380D01*
X169386904Y-96972380D01*
X169244047Y-96924761D01*
X169148809Y-96829523D01*
X169101190Y-96734285D01*
X169053571Y-96543809D01*
X169053571Y-96400952D01*
X169101190Y-96210476D01*
X169148809Y-96115238D01*
X169244047Y-96020000D01*
X169386904Y-95972380D01*
X169482142Y-95972380D01*
X169625000Y-96020000D01*
X169672619Y-96067619D01*
X170148809Y-96972380D02*
X170339285Y-96972380D01*
X170434523Y-96924761D01*
X170482142Y-96877142D01*
X170577380Y-96734285D01*
X170625000Y-96543809D01*
X170625000Y-96162857D01*
X170577380Y-96067619D01*
X170529761Y-96020000D01*
X170434523Y-95972380D01*
X170244047Y-95972380D01*
X170148809Y-96020000D01*
X170101190Y-96067619D01*
X170053571Y-96162857D01*
X170053571Y-96400952D01*
X170101190Y-96496190D01*
X170148809Y-96543809D01*
X170244047Y-96591428D01*
X170434523Y-96591428D01*
X170529761Y-96543809D01*
X170577380Y-96496190D01*
X170625000Y-96400952D01*
X171529761Y-95972380D02*
X171053571Y-95972380D01*
X171005952Y-96448571D01*
X171053571Y-96400952D01*
X171148809Y-96353333D01*
X171386904Y-96353333D01*
X171482142Y-96400952D01*
X171529761Y-96448571D01*
X171577380Y-96543809D01*
X171577380Y-96781904D01*
X171529761Y-96877142D01*
X171482142Y-96924761D01*
X171386904Y-96972380D01*
X171148809Y-96972380D01*
X171053571Y-96924761D01*
X171005952Y-96877142D01*
X171910714Y-95972380D02*
X172577380Y-95972380D01*
X172148809Y-96972380D01*
X172910714Y-96067619D02*
X172958333Y-96020000D01*
X173053571Y-95972380D01*
X173291666Y-95972380D01*
X173386904Y-96020000D01*
X173434523Y-96067619D01*
X173482142Y-96162857D01*
X173482142Y-96258095D01*
X173434523Y-96400952D01*
X172863095Y-96972380D01*
X173482142Y-96972380D01*
X173815476Y-95972380D02*
X174482142Y-96972380D01*
X174482142Y-95972380D02*
X173815476Y-96972380D01*
X175339285Y-96972380D02*
X174863095Y-96972380D01*
X174863095Y-95972380D01*
X175672619Y-96591428D02*
X176434523Y-96591428D01*
X176767857Y-95972380D02*
X177339285Y-95972380D01*
X177053571Y-96972380D02*
X177053571Y-95972380D01*
X178339285Y-97067619D02*
X178244047Y-97020000D01*
X178148809Y-96924761D01*
X178005952Y-96781904D01*
X177910714Y-96734285D01*
X177815476Y-96734285D01*
X177863095Y-96972380D02*
X177767857Y-96924761D01*
X177672619Y-96829523D01*
X177625000Y-96639047D01*
X177625000Y-96305714D01*
X177672619Y-96115238D01*
X177767857Y-96020000D01*
X177863095Y-95972380D01*
X178053571Y-95972380D01*
X178148809Y-96020000D01*
X178244047Y-96115238D01*
X178291666Y-96305714D01*
X178291666Y-96639047D01*
X178244047Y-96829523D01*
X178148809Y-96924761D01*
X178053571Y-96972380D01*
X177863095Y-96972380D01*
X179244047Y-96972380D02*
X178672619Y-96972380D01*
X178958333Y-96972380D02*
X178958333Y-95972380D01*
X178863095Y-96115238D01*
X178767857Y-96210476D01*
X178672619Y-96258095D01*
X179863095Y-95972380D02*
X179958333Y-95972380D01*
X180053571Y-96020000D01*
X180101190Y-96067619D01*
X180148809Y-96162857D01*
X180196428Y-96353333D01*
X180196428Y-96591428D01*
X180148809Y-96781904D01*
X180101190Y-96877142D01*
X180053571Y-96924761D01*
X179958333Y-96972380D01*
X179863095Y-96972380D01*
X179767857Y-96924761D01*
X179720238Y-96877142D01*
X179672619Y-96781904D01*
X179625000Y-96591428D01*
X179625000Y-96353333D01*
X179672619Y-96162857D01*
X179720238Y-96067619D01*
X179767857Y-96020000D01*
X179863095Y-95972380D01*
X180815476Y-95972380D02*
X180910714Y-95972380D01*
X181005952Y-96020000D01*
X181053571Y-96067619D01*
X181101190Y-96162857D01*
X181148809Y-96353333D01*
X181148809Y-96591428D01*
X181101190Y-96781904D01*
X181053571Y-96877142D01*
X181005952Y-96924761D01*
X180910714Y-96972380D01*
X180815476Y-96972380D01*
X180720238Y-96924761D01*
X180672619Y-96877142D01*
X180625000Y-96781904D01*
X180577380Y-96591428D01*
X180577380Y-96353333D01*
X180625000Y-96162857D01*
X180672619Y-96067619D01*
X180720238Y-96020000D01*
X180815476Y-95972380D01*
X181610095Y-105048480D02*
X181610095Y-105858004D01*
X181657714Y-105953242D01*
X181705333Y-106000861D01*
X181800571Y-106048480D01*
X181991047Y-106048480D01*
X182086285Y-106000861D01*
X182133904Y-105953242D01*
X182181523Y-105858004D01*
X182181523Y-105048480D01*
X182610095Y-105143719D02*
X182657714Y-105096100D01*
X182752952Y-105048480D01*
X182991047Y-105048480D01*
X183086285Y-105096100D01*
X183133904Y-105143719D01*
X183181523Y-105238957D01*
X183181523Y-105334195D01*
X183133904Y-105477052D01*
X182562476Y-106048480D01*
X183181523Y-106048480D01*
X209027733Y-103354142D02*
X208980114Y-103401761D01*
X208837257Y-103449380D01*
X208742019Y-103449380D01*
X208599161Y-103401761D01*
X208503923Y-103306523D01*
X208456304Y-103211285D01*
X208408685Y-103020809D01*
X208408685Y-102877952D01*
X208456304Y-102687476D01*
X208503923Y-102592238D01*
X208599161Y-102497000D01*
X208742019Y-102449380D01*
X208837257Y-102449380D01*
X208980114Y-102497000D01*
X209027733Y-102544619D01*
X209408685Y-102544619D02*
X209456304Y-102497000D01*
X209551542Y-102449380D01*
X209789638Y-102449380D01*
X209884876Y-102497000D01*
X209932495Y-102544619D01*
X209980114Y-102639857D01*
X209980114Y-102735095D01*
X209932495Y-102877952D01*
X209361066Y-103449380D01*
X209980114Y-103449380D01*
X195175142Y-95709166D02*
X195222761Y-95756785D01*
X195270380Y-95899642D01*
X195270380Y-95994880D01*
X195222761Y-96137738D01*
X195127523Y-96232976D01*
X195032285Y-96280595D01*
X194841809Y-96328214D01*
X194698952Y-96328214D01*
X194508476Y-96280595D01*
X194413238Y-96232976D01*
X194318000Y-96137738D01*
X194270380Y-95994880D01*
X194270380Y-95899642D01*
X194318000Y-95756785D01*
X194365619Y-95709166D01*
X194270380Y-95375833D02*
X194270380Y-94756785D01*
X194651333Y-95090119D01*
X194651333Y-94947261D01*
X194698952Y-94852023D01*
X194746571Y-94804404D01*
X194841809Y-94756785D01*
X195079904Y-94756785D01*
X195175142Y-94804404D01*
X195222761Y-94852023D01*
X195270380Y-94947261D01*
X195270380Y-95232976D01*
X195222761Y-95328214D01*
X195175142Y-95375833D01*
X197219047Y-81185714D02*
X197219047Y-81852380D01*
X196980952Y-80804761D02*
X196742857Y-81519047D01*
X197361904Y-81519047D01*
X197742857Y-81852380D02*
X197742857Y-80852380D01*
X198076190Y-81566666D01*
X198409523Y-80852380D01*
X198409523Y-81852380D01*
X199219047Y-81328571D02*
X199361904Y-81376190D01*
X199409523Y-81423809D01*
X199457142Y-81519047D01*
X199457142Y-81661904D01*
X199409523Y-81757142D01*
X199361904Y-81804761D01*
X199266666Y-81852380D01*
X198885714Y-81852380D01*
X198885714Y-80852380D01*
X199219047Y-80852380D01*
X199314285Y-80900000D01*
X199361904Y-80947619D01*
X199409523Y-81042857D01*
X199409523Y-81138095D01*
X199361904Y-81233333D01*
X199314285Y-81280952D01*
X199219047Y-81328571D01*
X198885714Y-81328571D01*
X132278380Y-101091904D02*
X133087904Y-101091904D01*
X133183142Y-101044285D01*
X133230761Y-100996666D01*
X133278380Y-100901428D01*
X133278380Y-100710952D01*
X133230761Y-100615714D01*
X133183142Y-100568095D01*
X133087904Y-100520476D01*
X132278380Y-100520476D01*
X132611714Y-99615714D02*
X133278380Y-99615714D01*
X132230761Y-99853809D02*
X132945047Y-100091904D01*
X132945047Y-99472857D01*
X121975952Y-99782380D02*
X122642619Y-99782380D01*
X122214047Y-100782380D01*
X123452142Y-100115714D02*
X123452142Y-100782380D01*
X123214047Y-99734761D02*
X122975952Y-100449047D01*
X123595000Y-100449047D01*
X124452142Y-100782380D02*
X123975952Y-100782380D01*
X123975952Y-99782380D01*
X124737857Y-100734761D02*
X124880714Y-100782380D01*
X125118809Y-100782380D01*
X125214047Y-100734761D01*
X125261666Y-100687142D01*
X125309285Y-100591904D01*
X125309285Y-100496666D01*
X125261666Y-100401428D01*
X125214047Y-100353809D01*
X125118809Y-100306190D01*
X124928333Y-100258571D01*
X124833095Y-100210952D01*
X124785476Y-100163333D01*
X124737857Y-100068095D01*
X124737857Y-99972857D01*
X124785476Y-99877619D01*
X124833095Y-99830000D01*
X124928333Y-99782380D01*
X125166428Y-99782380D01*
X125309285Y-99830000D01*
X125690238Y-99877619D02*
X125737857Y-99830000D01*
X125833095Y-99782380D01*
X126071190Y-99782380D01*
X126166428Y-99830000D01*
X126214047Y-99877619D01*
X126261666Y-99972857D01*
X126261666Y-100068095D01*
X126214047Y-100210952D01*
X125642619Y-100782380D01*
X126261666Y-100782380D01*
X127118809Y-100115714D02*
X127118809Y-100782380D01*
X126880714Y-99734761D02*
X126642619Y-100449047D01*
X127261666Y-100449047D01*
X128118809Y-99782380D02*
X127642619Y-99782380D01*
X127595000Y-100258571D01*
X127642619Y-100210952D01*
X127737857Y-100163333D01*
X127975952Y-100163333D01*
X128071190Y-100210952D01*
X128118809Y-100258571D01*
X128166428Y-100353809D01*
X128166428Y-100591904D01*
X128118809Y-100687142D01*
X128071190Y-100734761D01*
X127975952Y-100782380D01*
X127737857Y-100782380D01*
X127642619Y-100734761D01*
X127595000Y-100687142D01*
X115133380Y-101091904D02*
X115942904Y-101091904D01*
X116038142Y-101044285D01*
X116085761Y-100996666D01*
X116133380Y-100901428D01*
X116133380Y-100710952D01*
X116085761Y-100615714D01*
X116038142Y-100568095D01*
X115942904Y-100520476D01*
X115133380Y-100520476D01*
X115133380Y-100139523D02*
X115133380Y-99520476D01*
X115514333Y-99853809D01*
X115514333Y-99710952D01*
X115561952Y-99615714D01*
X115609571Y-99568095D01*
X115704809Y-99520476D01*
X115942904Y-99520476D01*
X116038142Y-99568095D01*
X116085761Y-99615714D01*
X116133380Y-99710952D01*
X116133380Y-99996666D01*
X116085761Y-100091904D01*
X116038142Y-100139523D01*
X104830952Y-99782380D02*
X105497619Y-99782380D01*
X105069047Y-100782380D01*
X106307142Y-100115714D02*
X106307142Y-100782380D01*
X106069047Y-99734761D02*
X105830952Y-100449047D01*
X106450000Y-100449047D01*
X107307142Y-100782380D02*
X106830952Y-100782380D01*
X106830952Y-99782380D01*
X107592857Y-100734761D02*
X107735714Y-100782380D01*
X107973809Y-100782380D01*
X108069047Y-100734761D01*
X108116666Y-100687142D01*
X108164285Y-100591904D01*
X108164285Y-100496666D01*
X108116666Y-100401428D01*
X108069047Y-100353809D01*
X107973809Y-100306190D01*
X107783333Y-100258571D01*
X107688095Y-100210952D01*
X107640476Y-100163333D01*
X107592857Y-100068095D01*
X107592857Y-99972857D01*
X107640476Y-99877619D01*
X107688095Y-99830000D01*
X107783333Y-99782380D01*
X108021428Y-99782380D01*
X108164285Y-99830000D01*
X108545238Y-99877619D02*
X108592857Y-99830000D01*
X108688095Y-99782380D01*
X108926190Y-99782380D01*
X109021428Y-99830000D01*
X109069047Y-99877619D01*
X109116666Y-99972857D01*
X109116666Y-100068095D01*
X109069047Y-100210952D01*
X108497619Y-100782380D01*
X109116666Y-100782380D01*
X109973809Y-100115714D02*
X109973809Y-100782380D01*
X109735714Y-99734761D02*
X109497619Y-100449047D01*
X110116666Y-100449047D01*
X110973809Y-99782380D02*
X110497619Y-99782380D01*
X110450000Y-100258571D01*
X110497619Y-100210952D01*
X110592857Y-100163333D01*
X110830952Y-100163333D01*
X110926190Y-100210952D01*
X110973809Y-100258571D01*
X111021428Y-100353809D01*
X111021428Y-100591904D01*
X110973809Y-100687142D01*
X110926190Y-100734761D01*
X110830952Y-100782380D01*
X110592857Y-100782380D01*
X110497619Y-100734761D01*
X110450000Y-100687142D01*
X129373380Y-70865904D02*
X130182904Y-70865904D01*
X130278142Y-70818285D01*
X130325761Y-70770666D01*
X130373380Y-70675428D01*
X130373380Y-70484952D01*
X130325761Y-70389714D01*
X130278142Y-70342095D01*
X130182904Y-70294476D01*
X129373380Y-70294476D01*
X129373380Y-69913523D02*
X129373380Y-69246857D01*
X130373380Y-69675428D01*
X111593380Y-70865904D02*
X112402904Y-70865904D01*
X112498142Y-70818285D01*
X112545761Y-70770666D01*
X112593380Y-70675428D01*
X112593380Y-70484952D01*
X112545761Y-70389714D01*
X112498142Y-70342095D01*
X112402904Y-70294476D01*
X111593380Y-70294476D01*
X111593380Y-69389714D02*
X111593380Y-69580190D01*
X111641000Y-69675428D01*
X111688619Y-69723047D01*
X111831476Y-69818285D01*
X112021952Y-69865904D01*
X112402904Y-69865904D01*
X112498142Y-69818285D01*
X112545761Y-69770666D01*
X112593380Y-69675428D01*
X112593380Y-69484952D01*
X112545761Y-69389714D01*
X112498142Y-69342095D01*
X112402904Y-69294476D01*
X112164809Y-69294476D01*
X112069571Y-69342095D01*
X112021952Y-69389714D01*
X111974333Y-69484952D01*
X111974333Y-69675428D01*
X112021952Y-69770666D01*
X112069571Y-69818285D01*
X112164809Y-69865904D01*
X164933380Y-70865904D02*
X165742904Y-70865904D01*
X165838142Y-70818285D01*
X165885761Y-70770666D01*
X165933380Y-70675428D01*
X165933380Y-70484952D01*
X165885761Y-70389714D01*
X165838142Y-70342095D01*
X165742904Y-70294476D01*
X164933380Y-70294476D01*
X165933380Y-69770666D02*
X165933380Y-69580190D01*
X165885761Y-69484952D01*
X165838142Y-69437333D01*
X165695285Y-69342095D01*
X165504809Y-69294476D01*
X165123857Y-69294476D01*
X165028619Y-69342095D01*
X164981000Y-69389714D01*
X164933380Y-69484952D01*
X164933380Y-69675428D01*
X164981000Y-69770666D01*
X165028619Y-69818285D01*
X165123857Y-69865904D01*
X165361952Y-69865904D01*
X165457190Y-69818285D01*
X165504809Y-69770666D01*
X165552428Y-69675428D01*
X165552428Y-69484952D01*
X165504809Y-69389714D01*
X165457190Y-69342095D01*
X165361952Y-69294476D01*
X147153380Y-70865904D02*
X147962904Y-70865904D01*
X148058142Y-70818285D01*
X148105761Y-70770666D01*
X148153380Y-70675428D01*
X148153380Y-70484952D01*
X148105761Y-70389714D01*
X148058142Y-70342095D01*
X147962904Y-70294476D01*
X147153380Y-70294476D01*
X147581952Y-69675428D02*
X147534333Y-69770666D01*
X147486714Y-69818285D01*
X147391476Y-69865904D01*
X147343857Y-69865904D01*
X147248619Y-69818285D01*
X147201000Y-69770666D01*
X147153380Y-69675428D01*
X147153380Y-69484952D01*
X147201000Y-69389714D01*
X147248619Y-69342095D01*
X147343857Y-69294476D01*
X147391476Y-69294476D01*
X147486714Y-69342095D01*
X147534333Y-69389714D01*
X147581952Y-69484952D01*
X147581952Y-69675428D01*
X147629571Y-69770666D01*
X147677190Y-69818285D01*
X147772428Y-69865904D01*
X147962904Y-69865904D01*
X148058142Y-69818285D01*
X148105761Y-69770666D01*
X148153380Y-69675428D01*
X148153380Y-69484952D01*
X148105761Y-69389714D01*
X148058142Y-69342095D01*
X147962904Y-69294476D01*
X147772428Y-69294476D01*
X147677190Y-69342095D01*
X147629571Y-69389714D01*
X147581952Y-69484952D01*
X183863180Y-89817533D02*
X184577466Y-89817533D01*
X184720323Y-89865152D01*
X184815561Y-89960390D01*
X184863180Y-90103247D01*
X184863180Y-90198485D01*
X183958419Y-89388961D02*
X183910800Y-89341342D01*
X183863180Y-89246104D01*
X183863180Y-89008009D01*
X183910800Y-88912771D01*
X183958419Y-88865152D01*
X184053657Y-88817533D01*
X184148895Y-88817533D01*
X184291752Y-88865152D01*
X184863180Y-89436580D01*
X184863180Y-88817533D01*
X185403133Y-91589580D02*
X185403133Y-92303866D01*
X185355514Y-92446723D01*
X185260276Y-92541961D01*
X185117419Y-92589580D01*
X185022180Y-92589580D01*
X185736466Y-91589580D02*
X186307895Y-91589580D01*
X186022180Y-92589580D02*
X186022180Y-91589580D01*
X186593609Y-92303866D02*
X187069800Y-92303866D01*
X186498371Y-92589580D02*
X186831704Y-91589580D01*
X187165038Y-92589580D01*
X188022180Y-91637200D02*
X187926942Y-91589580D01*
X187784085Y-91589580D01*
X187641228Y-91637200D01*
X187545990Y-91732438D01*
X187498371Y-91827676D01*
X187450752Y-92018152D01*
X187450752Y-92161009D01*
X187498371Y-92351485D01*
X187545990Y-92446723D01*
X187641228Y-92541961D01*
X187784085Y-92589580D01*
X187879323Y-92589580D01*
X188022180Y-92541961D01*
X188069800Y-92494342D01*
X188069800Y-92161009D01*
X187879323Y-92161009D01*
X209002333Y-108078542D02*
X208954714Y-108126161D01*
X208811857Y-108173780D01*
X208716619Y-108173780D01*
X208573761Y-108126161D01*
X208478523Y-108030923D01*
X208430904Y-107935685D01*
X208383285Y-107745209D01*
X208383285Y-107602352D01*
X208430904Y-107411876D01*
X208478523Y-107316638D01*
X208573761Y-107221400D01*
X208716619Y-107173780D01*
X208811857Y-107173780D01*
X208954714Y-107221400D01*
X209002333Y-107269019D01*
X209954714Y-108173780D02*
X209383285Y-108173780D01*
X209669000Y-108173780D02*
X209669000Y-107173780D01*
X209573761Y-107316638D01*
X209478523Y-107411876D01*
X209383285Y-107459495D01*
M02*
