M48
; DRILL file {KiCad (5.1.5-0-10_14)} date Thursday, 20 May 2021 at 04:22:02 pm
; FORMAT={-:-/ absolute / inch / decimal}
; #@! TF.CreationDate,2021-05-20T16:22:02+02:00
; #@! TF.GenerationSoftware,Kicad,Pcbnew,(5.1.5-0-10_14)
; #@! TF.FileFunction,Plated,1,2,PTH
FMAT,2
INCH
T1C0.0157
T2C0.0315
T3C0.0394
%
G90
G05
T1
X3.34Y-4.35
X3.595Y-4.045
X3.595Y-4.26
X3.6396Y-3.6261
X3.67Y-3.657
X3.67Y-4.295
X3.715Y-4.045
X3.715Y-4.26
X3.775Y-2.55
X3.775Y-2.75
X3.775Y-2.95
X3.775Y-3.15
X3.775Y-3.35
X3.84Y-4.345
X3.85Y-3.575
X3.94Y-4.345
X3.95Y-2.375
X3.975Y-3.7
X3.975Y-4.15
X4.075Y-2.26
X4.1Y-2.51
X4.14Y-3.95
X4.1405Y-2.1156
X4.1625Y-2.1775
X4.19Y-4.235
X4.24Y-4.235
X4.2458Y-3.3208
X4.26Y-3.4645
X4.29Y-4.235
X4.3Y-2.95
X4.315Y-3.26
X4.3374Y-2.1156
X4.34Y-4.235
X4.39Y-4.235
X4.41Y-3.6
X4.49Y-4.205
X4.5Y-2.95
X4.5342Y-2.1156
X4.5388Y-2.9043
X4.54Y-2.26
X4.54Y-2.515
X4.5424Y-3.26
X4.55Y-4.075
X4.56Y-3.4645
X4.5995Y-4.203
X4.6Y-3.65
X4.641Y-3.399
X4.65Y-4.075
X4.66Y-3.76
X4.674Y-3.43
X4.7311Y-2.1156
X4.8Y-2.255
X4.805Y-2.5
X4.812Y-3.4595
X4.813Y-3.31
X4.815Y-3.265
X4.865Y-3.3558
X4.865Y-2.1775
X4.865Y-4.235
X4.915Y-4.235
X4.9279Y-2.1156
X4.9509Y-4.0335
X4.9615Y-4.2341
X4.97Y-4.345
X4.99Y-4.2
X5.012Y-3.4595
X5.013Y-3.31
X5.0185Y-4.2341
X5.029Y-4.034
X5.065Y-4.235
X5.1248Y-2.1156
X5.125Y-3.95
X5.165Y-4.22
X5.212Y-3.4595
X5.213Y-3.31
X5.22Y-2.895
X5.235Y-2.26
X5.24Y-2.52
X5.24Y-3.27
X5.315Y-4.14
X5.3216Y-2.1156
X5.34Y-4.335
X5.412Y-3.4595
X5.413Y-3.31
X5.437Y-4.0993
X5.44Y-4.335
X5.5Y-2.5
X5.505Y-2.25
X5.515Y-3.26
X5.5185Y-2.1156
X5.5649Y-3.355
X5.565Y-2.1775
X5.5874Y-4.0993
X5.612Y-3.4595
X5.613Y-3.31
X5.7153Y-2.1156
X5.737Y-4.0993
X5.78Y-2.92
X5.81Y-4.115
X5.812Y-3.4595
X5.813Y-3.31
X5.9005Y-4.0354
X5.9122Y-2.1156
X5.935Y-2.26
X5.94Y-2.52
X5.9425Y-4.3544
X5.9476Y-3.2627
X5.993Y-3.31
X5.9989Y-3.937
X6.012Y-3.4595
X6.04Y-4.32
X6.048Y-4.0525
X6.0974Y-3.8386
X6.1039Y-3.997
X6.109Y-2.1156
X6.125Y-2.8975
X6.14Y-4.34
X6.1958Y-3.7402
X6.2024Y-3.8986
X6.205Y-2.255
X6.205Y-2.5
X6.21Y-4.15
X6.212Y-3.4595
X6.2126Y-3.3108
X6.215Y-3.26
X6.22Y-4.29
X6.24Y-4.34
X6.265Y-3.355
X6.265Y-2.1775
X6.3008Y-3.8002
X6.3059Y-2.1156
X6.334Y-3.431
X6.3386Y-3.6024
X6.34Y-4.34
X6.345Y-4.015
X6.36Y-3.399
X6.375Y-4.25
X6.427Y-3.399
X6.44Y-2.93
X6.4425Y-2.9975
X6.45Y-4.084
X6.4574Y-3.4996
X6.462Y-3.43
X6.475Y-4.275
X6.4831Y-2.1156
X6.4929Y-3.5399
X6.495Y-3.96
X6.497Y-3.905
X6.5353Y-4.115
X6.5774Y-4.1586
X6.6087Y-2.904
X6.62Y-3.785
X6.625Y-3.2875
X6.625Y-3.401
X6.625Y-4.325
X6.63Y-3.645
X6.635Y-2.26
X6.635Y-2.51
X6.6547Y-4.0324
X6.6996Y-2.1156
X6.7Y-4.35
X6.7125Y-3.5383
X6.7522Y-4.039
X6.7913Y-4.3387
X6.8216Y-3.7934
X6.822Y-2.573
X6.822Y-2.753
X6.8381Y-4.303
X6.8406Y-3.5413
X6.8672Y-4.033
X6.8705Y-4.3405
X6.875Y-2.325
X6.9249Y-4.2501
X6.975Y-2.425
X6.9868Y-4.0362
X6.9918Y-3.7934
X6.997Y-2.748
X7.0Y-2.925
X7.025Y-3.545
X7.07Y-3.956
X7.075Y-2.525
X7.0785Y-4.2705
X7.0896Y-3.645
X7.1026Y-3.934
X7.105Y-3.785
X7.1178Y-3.5866
X7.1182Y-3.9915
X7.1515Y-4.0846
X7.1645Y-3.14
X7.1645Y-3.288
X7.165Y-2.65
X7.165Y-2.81
X7.165Y-2.99
X7.1698Y-3.5172
X7.18Y-4.338
X7.238Y-3.8532
X7.24Y-4.368
X7.26Y-3.448
X7.275Y-4.295
X7.3075Y-4.3475
X7.3327Y-3.9272
X7.3453Y-3.7752
X7.3847Y-3.7756
X7.404Y-4.36
X7.408Y-3.418
X7.4418Y-3.776
X7.454Y-4.245
X7.454Y-4.323
X7.4606Y-4.0551
X7.5034Y-3.2894
X7.5295Y-3.9862
X7.5348Y-4.3352
X7.64Y-4.34
X7.6425Y-3.7
X7.6476Y-3.75
X7.65Y-3.64
X7.686Y-3.7
X7.689Y-4.2874
X7.71Y-3.418
X7.7395Y-3.288
X7.75Y-3.875
X7.7559Y-4.2126
X7.775Y-4.3575
X7.79Y-3.9475
X7.815Y-4.3125
X7.97Y-4.15
X7.97Y-4.32
X7.989Y-3.4326
X7.995Y-3.77
X7.995Y-3.875
X8.04Y-4.33
X8.04Y-4.3625
X8.085Y-3.77
X8.085Y-3.875
X8.125Y-3.65
X8.14Y-4.33
X8.14Y-4.36
X8.24Y-4.3325
X8.24Y-4.36
T2
X8.039Y-4.24
X8.1374Y-4.24
T3
X7.552Y-3.2
X7.652Y-3.2
X7.352Y-3.523
X7.452Y-3.523
X7.552Y-3.523
X7.652Y-3.523
X7.752Y-3.523
X7.852Y-3.523
T0
M30
